<svg xmlns="http://www.w3.org/2000/svg" width="500" height="375" id="add-friends">
  <circle cx="142.049" cy="117.128" r="73.077" style="fill:#6ca8f5"></circle>
  <path d="M132.514 190.065a.5.5 0 0 1-.064-.996 72.56 72.56 0 0 0 0-143.883.5.5 0 1 1 .13-.991 73.56 73.56 0 0 1 0 145.867.49.49 0 0 1-.066.003Z" style="fill:#fff"></path>
  <circle cx="322.33" cy="211.192" r="73.077" style="fill:#f4b1e6"></circle>
  <path d="M311.923 284.13a.5.5 0 0 1-.064-.996 72.56 72.56 0 0 0 0-143.884.5.5 0 1 1 .13-.99 73.56 73.56 0 0 1 0 145.866.49.49 0 0 1-.066.004Z" style="fill:#397ec3"></path>
  <path d="M142.05 170.435c-1.304-18.679 5.397-29.73 14.526-31.868 7.436-1.742 20.756-.764 22.273 14.34 2.978 29.659 4.789 41.62 15.653 65.316 7.321 15.968 22.956 34.129 43.828 33.331 18.635-.712 22.227-.977 22.812 2.934.555 3.71-5.063 5.69-11.124 6.627.317.16 13.41 6.759 18.578 9.56 5.214 2.826 7.605 6.084 6.427 8.677-1.676 3.69-6.427 1.862-6.427 1.862s5.201 2.32 3.042 6.518c-1.99 3.87-7.388 1.195-7.388 1.195s3.828 2.699 1.739 5.976c-2.241 3.514-7.605 1.195-7.605 1.195s3.164 2.418.869 5.215c-3.477 4.237-17.872.03-22.38-1.377-3.403-1.06-40.56-13.299-63.23-44.253-28.732-39.232-30.738-72.984-31.594-85.248Z" style="fill:#eda5a5"></path>
  <path d="M268.596 281.714a.498.498 0 0 1-.222-.052l-13.182-6.53a.5.5 0 1 1 .444-.896l13.181 6.53a.5.5 0 0 1-.221.948ZM264.25 289.428a.498.498 0 0 1-.224-.053l-13.037-6.519a.5.5 0 0 1 .448-.894l13.037 6.518a.5.5 0 0 1-.224.948ZM258.384 296.598a.49.49 0 0 1-.205-.044l-10.648-4.798a.5.5 0 1 1 .41-.912l10.648 4.798a.5.5 0 0 1-.205.956ZM234.605 271.913a15.89 15.89 0 0 1-5.756-1.07.5.5 0 0 1 .403-.915c.389.17 9.56 4.067 15.614-4.467a.5.5 0 0 1 .817.578 13.08 13.08 0 0 1-11.078 5.874Z" style="fill:#252525"></path>
  <path d="M108.831 182.204c19.965-1.557 28.308-6.181 28.308-6.181l4.91 23.383 43.762-7.545s-2.825-18.212-5.65-35.912c-2.827-17.717-14.272-23.466-22.517-27.595S137.574 115.1 133.34 91.6c-3.67-20.377-26.375-28.749-37.023-31.453a73.047 73.047 0 0 0 12.513 122.057Z" style="fill:#ef603f"></path>
  <path d="M101.451 178.366a.5.5 0 0 1-.017-1c24.085-.825 34.816-5.612 34.921-5.66a.5.5 0 0 1 .416.909c-.106.049-10.986 4.917-35.302 5.75Z" style="fill:#fff"></path>
  <path d="M131.647 137.464a43.558 43.558 0 0 1-18.134-4.25.5.5 0 1 1 .465-.884c.108.056 11.004 5.69 22.862 3.715a.5.5 0 0 1 .164.987 32.566 32.566 0 0 1-5.357.432ZM137.139 176.523a.5.5 0 0 1-.493-.426l-1.377-9.229a.5.5 0 1 1 .988-.147l1.377 9.228a.5.5 0 0 1-.42.569.567.567 0 0 1-.075.005ZM72.155 96.257a.5.5 0 0 1-.185-.965l14.067-5.637a.5.5 0 0 1 .371.928l-14.067 5.638a.493.493 0 0 1-.186.036Z" style="fill:#252525"></path>
  <path d="M89.616 130.003a8.925 8.925 0 0 1-8.324-5.705l-2.183-5.66a8.934 8.934 0 0 1 5.11-11.52l8.246-3.179a.5.5 0 0 1 .646.287l8.235 21.355a.5.5 0 0 1-.287.646l-8.247 3.18a8.86 8.86 0 0 1-3.196.596Zm2.741-24.951-7.779 3a7.937 7.937 0 0 0-4.535 10.226l2.183 5.66a7.92 7.92 0 0 0 10.226 4.536l7.78-3Z" style="fill:#fff"></path>
  <path d="M316.034 184.486c-15.636-12.887-24.041-17.518-34.773-18.16-5.245-.313-12.766 1.464-20.36 5.308a73.047 73.047 0 0 0 15.038 96.02c29.331-2.59 74.571-17.275 72.589-31.148-2.264-15.84-16.858-39.133-32.494-52.02Z" style="fill:#6ca8f5"></path>
  <path d="M286.77 167.07a36.687 36.687 0 0 0-5.51-.744c-5.244-.313-12.765 1.464-20.36 5.308a73.008 73.008 0 0 0-7.477 15.236c30.363-4.587 33.341-19.767 33.348-19.8Z" style="fill:#b77132"></path>
  <path d="M269.684 262.218a.5.5 0 0 1-.092-.991c31.7-5.97 57.44-21.039 57.695-21.19a.5.5 0 0 1 .51.861c-.258.153-26.14 15.309-58.02 21.311a.508.508 0 0 1-.093.009ZM294.563 221.214c-9.72 0-14.06-3.67-14.284-3.864a.5.5 0 0 1 .658-.754c.064.056 6.711 5.619 21.891 2.811a.5.5 0 1 1 .182.983 46.334 46.334 0 0 1-8.447.824Z" style="fill:#252525"></path>
  <circle cx="152.341" cy="103.4" r="24.157" style="fill:#eda5a5"></circle>
  <path d="M134.504 90.56a29.39 29.39 0 0 0 8.631-4.166s18.16 11.821 33.863 13.024 18.91-2.463 19.053-5.066-2.655-6.52-12.288-6.903c0 0-1.319-9.687-12.49-4.874 0 0-12.222-12.779-29.073-5.148-5.156 2.335-8.334 7.03-10.028 10.338a1.983 1.983 0 0 0 2.332 2.796Z" style="fill:#b77132"></path>
  <path d="M159.998 118.119a7.859 7.859 0 0 1-2.294-.341c-6.858-2.077-5.87-10.385-5.86-10.468a.5.5 0 0 1 .993.127c-.04.308-.888 7.554 5.156 9.384 4.706 1.427 8.821-2.866 8.863-2.91a.5.5 0 0 1 .729.685c-.156.167-3.36 3.523-7.587 3.523ZM154.227 100.55a.5.5 0 0 1-.388-.813c.023-.028 2.352-2.815 6.18-.615a.5.5 0 0 1-.498.867c-3.072-1.766-4.835.292-4.908.38a.503.503 0 0 1-.386.182ZM171.873 107.337a.5.5 0 0 1-.488-.395 3.322 3.322 0 0 0-2.914-2.934.5.5 0 0 1 .034-1 4.351 4.351 0 0 1 3.858 3.723.5.5 0 0 1-.49.606Z" style="fill:#252525"></path>
  <circle cx="156.998" cy="103.468" r="1.704" style="fill:#252525"></circle>
  <circle cx="168.478" cy="108.406" r="1.704" style="fill:#252525"></circle>
  <circle cx="319.531" cy="190.49" r="24.157" style="fill:#b77132"></circle>
  <path d="M310.452 193.826a7.688 7.688 0 0 1-6.263-2.978c-3.464-4.334-.828-10.114-.713-10.357a.5.5 0 0 1 .906.423c-.026.054-2.485 5.465.589 9.309 3.942 4.934 10.356 1.456 10.627 1.305a.5.5 0 0 1 .486.873 13.054 13.054 0 0 1-5.632 1.425ZM321.94 187.997a.5.5 0 0 1-.438-.742c.059-.109 1.308-2.503-1.47-4.699a.5.5 0 1 1 .621-.784c3.464 2.739 1.742 5.936 1.723 5.968a.498.498 0 0 1-.437.257ZM313.436 176.036a.5.5 0 0 1-.457-.298 3.314 3.314 0 0 0-3.806-1.616.5.5 0 0 1-.168-.987 4.352 4.352 0 0 1 4.889 2.2.5.5 0 0 1-.258.659.493.493 0 0 1-.2.042Z" style="fill:#252525"></path>
  <circle cx="317.739" cy="186.191" r="1.704" style="fill:#252525"></circle>
  <circle cx="308.892" cy="177.365" r="1.704" style="fill:#252525"></circle>
  <path d="M342.562 197.781a24.164 24.164 0 0 0-23.12-31.45c-.02.046-2.959 7.334 3.972 11.034 6.953 3.712 5.649 9.99 3.476 15.977s.361 13.73 10.175 13.77a24.058 24.058 0 0 0 5.497-9.33Z" style="fill:#252525"></path>
  <path d="M339.058 184.486s7.388-8.66 21.294-7.121 16.948 15.01 21.076 21.095 8.04 11.733 23.467 10.212 32.375 3.042 39.98 24.553-10.078 41.702-32.198 40.187c-18.863-1.293-15.821-11.723-32.305-14.471-16.642-2.775-36.589-14.483-30.232-39.622 4.997-19.765-4.346-24.119-8.475-25.977-9.14-4.113-2.607-8.856-2.607-8.856Z" style="fill:#252525"></path>
  <path d="M302.919 277.551c9.63-7.717 10.404-23.235 10.517-33.679.08-7.47 1.286-17.6 12.585-21.294s20.86 3.911 22.815 15.427 2.173 54.611-26.506 74.022c-32.224 21.81-88.02 4.698-119.092-27.242-5.415-5.713-3.314-8.972-2.01-9.841 0 0-4.201-3.839-2.535-7.316a4.198 4.198 0 0 1 4.545-2.68s-2.9-3.793.377-6.835 7.245 1.186 7.245 1.186-2.317-3.621.256-6.118c2.979-2.89 7.733.194 11.478 2.642 3.848 2.515 16.513 11.95 16.513 11.95a51.017 51.017 0 0 1-1.42-5.866c-.39-2.39-.318-4.998 2.507-5.867s5.142 1.159 7.387 7.605c2.554 7.333 7.684 12.658 15.428 16.514 8.256 4.11 27.397 7.418 39.91-2.608Z" style="fill:#b77132"></path>
  <path d="M221.508 268.49a.504.504 0 0 1-.313-.11c-3.224-2.58-10.579-8.634-10.652-8.695a.5.5 0 0 1 .635-.772c.074.06 7.423 6.111 10.642 8.687a.5.5 0 0 1-.312.89ZM216.184 276.747a.508.508 0 0 1-.253-.068c-4.461-2.612-12.702-11.025-13.05-11.381a.5.5 0 1 1 .715-.7c.085.088 8.495 8.674 12.84 11.217a.5.5 0 0 1-.252.932ZM212.599 284.77a.495.495 0 0 1-.275-.082 79.284 79.284 0 0 1-11.454-9.395.5.5 0 0 1 .715-.7 78.21 78.21 0 0 0 11.288 9.259.5.5 0 0 1-.274.918Z" style="fill:#252525"></path>
  <path d="M252.734 191.777a5.085 5.085 0 0 1-2.454-5.286c.641-3.56 4.59-3.73 4.59-3.73s-4.26-1.75-3.235-5.937c1.072-4.376 6.201-3.426 6.201-3.426s-3.445-1.93-2.172-5.57 5.262-2.698 5.262-2.698a3.532 3.532 0 0 1-.834-4.073c.978-2.296 3.824-2.69 6.532-2.33s10.517 2.519 12.286 7.492c1.355 3.81-2.055 4.795-2.055 4.795a5.184 5.184 0 0 1 1.913 5.367c-.674 3.115-4.32 3.234-4.32 3.234a4.597 4.597 0 0 1 1.604 5.387c-1.288 3.413-5.445 3.267-5.445 3.267a4.807 4.807 0 0 1 1.04 3.937c-.623 2.704-4.203 3.752-7.85 3.131a36.908 36.908 0 0 1-11.063-3.56Z" style="fill:#b77132"></path>
  <path d="M274.817 180.08a.5.5 0 0 1-.065-.996c.904-.12 3.057-.636 3.528-2.81a4.657 4.657 0 0 0-1.705-4.846.5.5 0 0 1 .142-.895 3.162 3.162 0 0 0 1.736-1.431 3.393 3.393 0 0 0-.014-2.715.5.5 0 1 1 .942-.335 4.326 4.326 0 0 1-.043 3.514 3.891 3.891 0 0 1-1.564 1.582 5.642 5.642 0 0 1 1.483 5.339c-.622 2.87-3.504 3.472-4.372 3.588a.522.522 0 0 1-.068.005ZM264.643 186.19a.508.508 0 0 1-.144-.02l-9.771-2.93a.5.5 0 0 1 .287-.959l9.771 2.93a.5.5 0 0 1-.143.98ZM266.892 177.072a.49.49 0 0 1-.165-.029l-9.056-3.174a.5.5 0 1 1 .33-.943l9.056 3.174a.5.5 0 0 1-.165.972ZM269.03 168.608a.5.5 0 0 1-.174-.03l-8.102-2.98a.5.5 0 1 1 .346-.938l8.102 2.979a.5.5 0 0 1-.173.969Z" style="fill:#252525"></path>
  <path d="M220.56 323.36a88.356 88.356 0 0 0 3.196-16.198c.131-1.28-1.87-1.27-2 0a85.524 85.524 0 0 1-3.125 15.666 1 1 0 0 0 1.929.532ZM210.384 302.558l-11.982 28.948c-.492 1.188 1.443 1.706 1.929.532l11.982-28.948c.492-1.188-1.442-1.706-1.929-.532ZM198.482 290.108a137.44 137.44 0 0 1-10.205 11.07c-.925.898.49 2.312 1.414 1.414a137.436 137.436 0 0 0 10.205-11.07 1.028 1.028 0 0 0 0-1.414 1.008 1.008 0 0 0-1.414 0ZM191.038 280.877l-17.247 4.833a1 1 0 0 0 .531 1.928l17.247-4.832a1 1 0 0 0-.531-1.929Z" style="fill:#6ca8f5"></path>
  <path d="M79.135 81.8a5.085 5.085 0 0 1-.598-5.797c1.766-3.157 5.556-2.031 5.556-2.031s-3.458-3.043-1.124-6.667c2.438-3.787 6.978-1.219 6.978-1.219s-2.628-2.947-.239-5.974 5.855-.836 5.855-.836a3.532 3.532 0 0 1 .537-4.122c1.673-1.852 4.492-1.298 6.935-.075s9.123 5.809 9.175 11.087c.04 4.042-3.505 3.863-3.505 3.863a5.184 5.184 0 0 1 .06 5.698c-1.653 2.725-5.138 1.65-5.138 1.65a4.597 4.597 0 0 1-.239 5.615c-2.33 2.808-6.212 1.315-6.212 1.315a4.807 4.807 0 0 1-.3 4.062c-1.47 2.353-5.196 2.177-8.442.402a36.908 36.908 0 0 1-9.3-6.97Z" style="fill:#eda5a5"></path>
  <path d="M92.377 80.426a.5.5 0 0 1-.292-.094L83.8 74.378a.5.5 0 1 1 .584-.813l8.284 5.955a.5.5 0 0 1-.292.906ZM97.475 72.538a.498.498 0 0 1-.31-.108l-7.528-5.951a.5.5 0 1 1 .62-.785l7.528 5.952a.5.5 0 0 1-.31.892ZM102.254 65.232a.5.5 0 0 1-.317-.112l-6.69-5.456a.5.5 0 0 1 .632-.775l6.691 5.456a.5.5 0 0 1-.316.887Z" style="fill:#252525"></path>
  <circle cx="298.613" cy="124.141" r="3.63" style="fill:#2b8941"></circle>
  <circle cx="203.238" cy="182.164" r="5.973" style="fill:#2b8941"></circle>
  <circle cx="155.449" cy="265.75" r="3.166" style="fill:#2b8941"></circle>
  <path d="m234.95 232.893-4.47-4.335-6.107 1.226a1.56 1.56 0 0 1-1.707-2.216l2.74-5.592-3.052-5.428a1.56 1.56 0 0 1 1.58-2.309l6.165.879 4.22-4.58a1.56 1.56 0 0 1 2.683.788l1.07 6.135 5.66 2.598a1.56 1.56 0 0 1 .08 2.796l-5.505 2.913-.721 6.186a1.56 1.56 0 0 1-2.635.94ZM77.872 203.623l-4.718-1.611-4.002 2.973a1.249 1.249 0 0 1-1.994-1.02l.074-4.986-4.064-2.887a1.249 1.249 0 0 1 .354-2.211l4.765-1.47 1.49-4.758a1.249 1.249 0 0 1 2.212-.346l2.87 4.077 4.986-.054a1.249 1.249 0 0 1 1.012 1.998l-2.99 3.99 1.592 4.724a1.249 1.249 0 0 1-1.587 1.58ZM235.578 126.872l-2.223-2.549-3.36.386a.847.847 0 0 1-.822-1.276l1.737-2.902-1.405-3.075a.847.847 0 0 1 .96-1.178l3.295.756 2.491-2.287a.847.847 0 0 1 1.417.549l.3 3.368 2.944 1.663a.847.847 0 0 1-.084 1.516l-3.11 1.326-.672 3.315a.847.847 0 0 1-1.468.388Z" style="fill:#f9d95a"></path>
</svg>
