<svg xmlns="http://www.w3.org/2000/svg" viewBox="0 0 128 128" id="boy">
  <path fill="#ff7364" d="M39.37 47.65c4.088 5.558 4.255 8.558 1.76 15.14-4.05 1.45-9.22-1.72-10.55-5.81-1.04-3.18-.55-6.3 1.25-8.17l-.009-.082a5.786 5.786 0 0 1 1.9-1.4 8.431 8.431 0 0 1 5.649.322zm49.298-.135c1.33-.78 4.422-.623 5.652-.093a5.506 5.506 0 0 1 2.08 1.6c1.64 1.89 2.05 4.9 1.05 7.96-1.32 4.09-6.5 7.26-10.54 5.81-1.785-5.167-1.91-9.135 1.758-15.277z"></path>
  <path fill="#ed4850" d="M39.721 56.14a1 1 0 0 1-.8-.4 5.47 5.47 0 0 0-4.166-1.86 1.025 1.025 0 0 1-1.03-.966 1 1 0 0 1 .96-1.033 7.425 7.425 0 0 1 5.838 2.662 1 1 0 0 1-.8 1.6zm48.588 0a1 1 0 0 1-.8-1.6 7.443 7.443 0 0 1 5.848-2.661 1 1 0 0 1-.071 2 5.51 5.51 0 0 0-4.176 1.86 1 1 0 0 1-.801.401z"></path>
  <path fill="#ff7364" d="M81.76 93.89C78.47 99.53 70.83 101 63.99 101c-8.16 0-15.07-2.67-17.84-7.06 3.87-1.81 8.26-3.71 9.56-9.62a17.473 17.473 0 0 0 .39-3.82h15.8a16.461 16.461 0 0 0 .39 3.67c1.28 5.66 5.56 8.11 9.47 9.72Z"></path>
  <path fill="#4666b7" d="M101.783 110.4c-2.228-3.552-8.615-11.183-19.93-16.463l-.091-.042c-5.332 2.948-11.39 5.477-17.752 5.511-6.551.036-11.509-3.1-17.357-5.7l-.506.236c-11.315 5.28-17.7 12.911-19.93 16.463-2.6 4.146-.193 6.395 3.529 8.448C33.585 120.96 45.265 125.4 64 125.4s30.415-4.438 34.254-6.551c3.722-2.055 6.128-4.304 3.529-8.449Z"></path>
  <path fill="#5981d1" d="M58.91 100.22a37.389 37.389 0 0 1-16.7-4.24c-3.25-1.75-5.5-3.78-5.9-5.59-.73-3.38 4.05-10.76 7.49-11.14 3.16-.34 7.68 2.38 11.64 6.14C60.11 89.83 64 95.71 64 99.74a24.349 24.349 0 0 1-5.09.48zm10.18 0a24.349 24.349 0 0 1-5.09-.48c0-4.03 3.89-9.91 8.56-14.35 3.96-3.76 8.48-6.48 11.64-6.14 3.44.38 8.22 7.76 7.49 11.14-.4 1.81-2.65 3.84-5.9 5.59a37.389 37.389 0 0 1-16.7 4.24z"></path>
  <path fill="#ed4850" d="M72.29 84.17a15.313 15.313 0 0 1-8.4 2.34 15.61 15.61 0 0 1-8.18-2.19 17.473 17.473 0 0 0 .39-3.82h15.8a16.461 16.461 0 0 0 .39 3.67Z"></path>
  <path fill="#ff977b" d="M88.67 47.65a58.872 58.872 0 0 1-.36 7.49 62.607 62.607 0 0 1-1.4 7.65C84.96 70.92 80.7 77.38 71.9 80.5a32.65 32.65 0 0 1-4.81 1.28 16.31 16.31 0 0 1-6.15 0 31.843 31.843 0 0 1-4.84-1.29c-8.77-3.12-13.02-9.57-14.97-17.7a56.987 56.987 0 0 1-1.76-15.14c0-3.45-3.268-17.419 6.44-27.9 12.022-12.978 30.788-10 37.69-.375 7.984 11.136 5.12 19.025 5.17 28.275Z"></path>
  <rect width="4.056" height="5.096" x="49.562" y="45.796" fill="#9b4e4e" rx="1.975" ry="1.975" transform="rotate(-180 51.59 48.343)"></rect>
  <path fill="#874242" d="M54.277 48.043a2.657 2.657 0 0 0-1.349-.845 6.469 6.469 0 0 0-2.081-.307 7.88 7.88 0 0 0-2.129.277 9.964 9.964 0 0 1-2.113.625l-.095.007a.655.655 0 0 1-.7-.607.666.666 0 0 1 .043-.283 3.359 3.359 0 0 1 2.231-1.71 8.8 8.8 0 0 1 2.752-.494 8.343 8.343 0 0 1 2.8.445 5.115 5.115 0 0 1 1.36.726 3.285 3.285 0 0 1 1.107 1.391.984.984 0 0 1-1.721.936Z"></path>
  <rect width="4.056" height="5.096" x="74.418" y="45.796" fill="#9b4e4e" rx="1.975" ry="1.975"></rect>
  <path fill="#874242" d="M71.931 47.266a3.285 3.285 0 0 1 1.107-1.391 5.13 5.13 0 0 1 1.36-.726 8.347 8.347 0 0 1 2.8-.445 8.8 8.8 0 0 1 2.752.494 3.359 3.359 0 0 1 2.229 1.712.655.655 0 0 1-.652.89l-.1-.007a9.964 9.964 0 0 1-2.113-.625 7.88 7.88 0 0 0-2.129-.277 6.469 6.469 0 0 0-2.081.307 2.649 2.649 0 0 0-1.348.845l-.108.158a.984.984 0 0 1-1.721-.935Z"></path>
  <path fill="#ed4850" d="M64.009 67.445h-.292c-1.493-.028-5.024-.3-5.57-2.241a1 1 0 1 1 1.926-.541c.2.288 1.838.84 4.321.78 2.213-.055 3.425-.571 3.582-.835a.991.991 0 0 1 1.254-.636 1.008 1.008 0 0 1 .642 1.268c-.643 1.994-4.34 2.205-5.863 2.205zm.001-8.075c-.032 0-3.19-.076-3.19-1.77a1 1 0 0 1 1.868-.5 4.278 4.278 0 0 0 1.322.268 4.22 4.22 0 0 0 1.3-.267 1 1 0 0 1 1.868.5c.002 1.693-3.137 1.769-3.168 1.769z"></path>
  <path fill="#f7f0df" d="M54.941 116.06a1.081 1.081 0 0 1-.158-.012 1 1 0 0 1-.83-1.145 91.24 91.24 0 0 1 4.017-15.022c.324-.893.668-1.782 1.031-2.692a1 1 0 1 1 1.857.742c-.355.89-.691 1.76-1.008 2.631a90.641 90.641 0 0 0-3.922 14.655 1 1 0 0 1-.987.843zm18.118 0a1 1 0 0 1-.987-.843 90.871 90.871 0 0 0-3.923-14.658 92.485 92.485 0 0 0-1.007-2.628A1 1 0 1 1 69 97.189c.363.91.707 1.8 1.03 2.689a91.259 91.259 0 0 1 4.017 15.022 1 1 0 0 1-.83 1.144.953.953 0 0 1-.158.016z"></path>
  <path fill="#874242" d="M57.048 43.845a29.459 29.459 0 0 1-3.53-.9c-1.153-.328-2.31-.628-3.468-.838a16.565 16.565 0 0 0-3.436-.332 4.842 4.842 0 0 0-2.928.851l-.036.03a.753.753 0 0 1-.995-1.13 6.207 6.207 0 0 1 3.861-1.488 17.32 17.32 0 0 1 3.853.206c1.25.2 2.468.483 3.67.795a20.767 20.767 0 0 1 3.495 1.173h.009a.861.861 0 0 1-.495 1.633zM70.5 42.208a20.767 20.767 0 0 1 3.5-1.173c1.2-.312 2.42-.6 3.67-.795a17.32 17.32 0 0 1 3.853-.206 6.207 6.207 0 0 1 3.861 1.488.753.753 0 0 1-.993 1.131l-.038-.031a4.842 4.842 0 0 0-2.928-.851 16.572 16.572 0 0 0-3.436.332c-1.158.21-2.315.51-3.467.838a29.523 29.523 0 0 1-3.531.9.861.861 0 0 1-.5-1.633z"></path>
  <path fill="#9b4e4e" d="M96.813 32.741c1.014 5.164.516 9.809-.413 16.279a5.445 5.445 0 0 0-2.12-1.51c-1.23-.53-4.28-.64-5.61.14-.03-5.01-2.49-12.46-4.88-18.27a4.99 4.99 0 0 0-8.65-1.04c-5.23 7.23-14.32 13.77-30.75 14.23-1.02.03-.94-3.45.35-8.09a.714.714 0 0 1 .04-.16 22.592 22.592 0 0 0-3.38 5.81 22.42 22.42 0 0 0-2.03 7.52c-1.34-.78-4.38-.67-5.62-.14a5.6 5.6 0 0 0-1.92 1.29 25.839 25.839 0 0 1 .45-8.81c.05-.23.66-2.33.66-2.33a4.039 4.039 0 0 1-1.5.57 1.466 1.466 0 0 1-.74-.12c-.86-.4-1.48-1.87-.76-5.99 2.12-12.08 7.02-18.13 15.83-23.65 6.682-4.19 20.453-10.116 33.081.52a1 1 0 0 0 .62.232c13.394.278 23.737 22.912 17.636 23.168a.3.3 0 0 0-.294.351Z"></path>
  <path fill="#874242" d="M59.45 14.72c-8.91 4.9-14.19 18.08-14.67 19.6a22.592 22.592 0 0 0-3.38 5.81c-1.21-9.69 7.5-21.88 17.09-27.17a1 1 0 1 1 .96 1.76zM36.14 29.9a34.371 34.371 0 0 0-3.2 7.76 4.039 4.039 0 0 1-1.5.57c-.3-2.12 1.19-6.48 3-9.38a1 1 0 0 1 1.7 1.05z"></path>
</svg>
