<svg id="INDONESIA" viewBox="0 0 512 512" xmlns="http://www.w3.org/2000/svg"><path d="m16.96 160.92c.7.08 1.38.11 2.07.11 9.58 0 17.81-7.22 18.87-16.95 1.14-10.48 2.51-20.52 4.2-30.69 2.91-16.31 11.88-32.66 25.28-46.06 13.4-13.39 29.76-22.36 46.09-25.27 10.19-1.69 20.23-3.06 30.71-4.2 10.43-1.13 17.98-10.5 16.85-20.92-1.13-10.43-10.5-17.97-20.94-16.84-11.24 1.21-22.02 2.69-32.95 4.51l-.19.03c-49.57 8.77-93.54 52.71-102.3 102.24l-.03.19c-1.82 10.92-3.29 21.69-4.51 32.93-1.13 10.43 6.41 19.79 16.85 20.92z"/><path d="m511.89 140.18c-1.22-11.23-2.69-22.01-4.51-32.93l-.03-.19c-8.76-49.52-52.73-93.47-102.28-102.22l-.19-.03c-10.95-1.82-21.73-3.29-32.95-4.51-10.44-1.12-19.81 6.41-20.94 16.84s6.41 19.79 16.85 20.92c10.47 1.13 20.51 2.51 30.71 4.2 16.32 2.91 32.69 11.88 46.09 25.27s22.38 29.75 25.28 46.06c1.69 10.17 3.06 20.21 4.2 30.69 1.05 9.73 9.29 16.95 18.87 16.95.68 0 1.37-.04 2.07-.11 10.43-1.13 17.97-10.5 16.85-20.92z"/><path d="m507.38 404.93c1.82-10.92 3.29-21.7 4.51-32.93 1.13-10.43-6.41-19.79-16.85-20.92-10.42-1.13-19.81 6.41-20.94 16.84-1.13 10.48-2.51 20.52-4.2 30.69-2.91 16.31-11.88 32.66-25.28 46.06-13.4 13.39-29.77 22.37-46.09 25.27-10.17 1.69-20.21 3.06-30.7 4.2-10.43 1.13-17.97 10.5-16.84 20.92 1.05 9.73 9.29 16.95 18.87 16.95.68 0 1.37-.04 2.07-.11 11.25-1.22 22.03-2.69 32.95-4.51l.19-.03c49.56-8.75 93.53-52.7 102.28-102.22l.03-.19z"/><path d="m4.62 404.75.03.19c8.76 49.52 52.73 93.47 102.28 102.22l.19.03c10.92 1.82 21.7 3.29 32.95 4.51.7.08 1.39.11 2.07.11 9.58 0 17.81-7.21 18.87-16.95 1.13-10.43-6.41-19.79-16.84-20.92-10.49-1.14-20.54-2.51-30.71-4.2-16.32-2.91-32.68-11.88-46.09-25.27-13.4-13.39-22.38-29.75-25.28-46.06-1.69-10.17-3.06-20.21-4.2-30.69-1.13-10.43-10.51-17.97-20.94-16.84s-17.98 10.5-16.85 20.92c1.22 11.24 2.69 22.01 4.51 32.93z"/><path d="m164.73 352.54c26.9 20.62 59.12 30.93 91.33 30.93s64.43-10.32 91.3-30.94c8.32-6.39 9.89-18.31 3.49-26.63-6.39-8.32-18.32-9.88-26.64-3.49-40.11 30.79-96.18 30.79-136.35 0-8.33-6.38-20.25-4.81-26.64 3.51s-4.82 20.24 3.51 26.62z"/><path d="m183.82 179.95v-27.73c0-10.49-8.51-18.99-19-18.99s-19 8.5-19 18.99v27.73c0 10.49 8.51 18.99 19 18.99s19-8.5 19-18.99z"/><path d="m366.18 179.95v-27.73c0-10.49-8.51-18.99-19-18.99s-19 8.5-19 18.99v27.73c0 10.49 8.51 18.99 19 18.99s19-8.5 19-18.99z"/><path d="m242 280.34c3.75 4.08 8.87 6.15 14 6.15 4.59 0 9.19-1.65 12.84-5l23.14-21.22c6.02-5.53 7.84-14.28 4.5-21.74l-23.14-51.73c-4.28-9.57-15.52-13.87-25.1-9.59s-13.87 15.51-9.59 25.09l17.55 39.24-13.06 11.97c-7.73 7.09-8.25 19.1-1.15 26.83z"/></svg>