<svg width="24" height="18" viewBox="0 0 24 18" fill="none" xmlns="http://www.w3.org/2000/svg">
<rect y="0.444336" width="24" height="17.1111" rx="3" fill="#1A1A1A"/>
<g clip-path="url(#clip0_2155_7597)">
<path d="M14.4324 4.63232H9.56543V13.3669H14.4324V4.63232Z" fill="#FF5F00"/>
<path d="M9.87487 8.99971C9.87487 7.30218 10.6629 5.68181 11.9916 4.63243C9.58131 2.73428 6.08946 3.15095 4.18903 5.57379C2.2886 7.98119 2.70577 11.4688 5.13152 13.367C7.15556 14.9565 9.98302 14.9565 12.0071 13.367C10.6629 12.3176 9.87487 10.6972 9.87487 8.99971Z" fill="#EB001B"/>
<path d="M20.9991 8.99971C20.9991 12.0707 18.5116 14.5553 15.4369 14.5553C14.1854 14.5553 12.9802 14.1386 12.0068 13.367C14.4171 11.4688 14.8343 7.98119 12.9339 5.55835C12.6558 5.21885 12.3468 4.89477 12.0068 4.63243C14.4171 2.73428 17.9244 3.15095 19.8094 5.57379C20.5819 6.54601 20.9991 7.74971 20.9991 8.99971Z" fill="#F79E1B"/>
<path d="M20.4744 12.4411V12.256H20.5516V12.2251H20.3662V12.256H20.4435V12.4411H20.4744ZM20.8297 12.4411V12.2251H20.7679L20.7061 12.3794L20.6443 12.2251H20.5825V12.4411H20.6289V12.2714L20.6907 12.4103H20.737L20.7988 12.2714V12.4411H20.8297Z" fill="#F79E1B"/>
</g>
<defs>
<clipPath id="clip0_2155_7597">
<rect width="18" height="11.1111" fill="white" transform="translate(3 3.44434)"/>
</clipPath>
</defs>
</svg>
