<svg width="24" height="24" viewBox="0 0 24 24" fill="none" xmlns="http://www.w3.org/2000/svg">
<path d="M22 12.1644C22 11.4403 21.9426 10.7123 21.8202 10H12V14.1018H17.6236C17.3902 15.4247 16.6404 16.5949 15.5425 17.3386V20H18.8975C20.8676 18.1448 22 15.4051 22 12.1644Z" fill="#4285F4"/>
<path d="M12.186 22C14.9585 22 17.2965 21.1236 19 19.6109L15.6874 17.1382C14.7658 17.7418 13.576 18.0836 12.1898 18.0836C9.50803 18.0836 7.23418 16.3418 6.41832 14H3V16.5491C4.74504 19.8909 8.29934 22 12.186 22Z" fill="#34A853"/>
<path d="M6 14.1318C5.61793 12.7488 5.61793 11.2512 6 9.86825V7H2.97026C1.67658 10.1465 1.67658 13.8535 2.97026 17L6 14.1318Z" fill="#FBBC04"/>
<path d="M12.1493 5.91492C13.609 5.89312 15.0198 6.42374 16.0769 7.39776L19 4.57383C17.1491 2.89473 14.6925 1.97159 12.1493 2.00067C8.27816 2.00067 4.73807 4.10862 3 7.45228L6.40089 10C7.20973 7.65581 9.47825 5.91492 12.1493 5.91492Z" fill="#EA4335"/>
</svg>
