<svg width="250" height="200" viewBox="0 0 250 200" fill="none" xmlns="http://www.w3.org/2000/svg">
<g clip-path="url(#clip0_2179_6224)">
<path d="M140.856 137.609C143.437 137.609 145.529 135.517 145.529 132.937C145.529 130.356 143.437 128.264 140.856 128.264C138.275 128.264 136.184 130.356 136.184 132.937C136.184 135.517 138.275 137.609 140.856 137.609Z" fill="#FF8CB6"/>
<path d="M140.856 138.129C139.829 138.129 138.824 137.824 137.969 137.253C137.115 136.683 136.449 135.872 136.056 134.923C135.664 133.973 135.56 132.928 135.761 131.921C135.961 130.913 136.456 129.988 137.183 129.261C137.909 128.534 138.834 128.039 139.843 127.839C140.85 127.638 141.894 127.742 142.844 128.135C143.794 128.528 144.604 129.193 145.175 130.048C145.746 130.903 146.051 131.907 146.051 132.934C146.049 134.312 145.502 135.632 144.528 136.606C143.554 137.58 142.234 138.128 140.856 138.129ZM140.856 128.785C140.035 128.785 139.233 129.029 138.55 129.485C137.868 129.941 137.335 130.589 137.021 131.348C136.708 132.106 136.625 132.941 136.785 133.746C136.946 134.551 137.341 135.291 137.922 135.871C138.503 136.452 139.242 136.847 140.047 137.007C140.853 137.167 141.687 137.084 142.445 136.77C143.204 136.455 143.852 135.923 144.308 135.24C144.764 134.558 145.007 133.755 145.006 132.934C145.004 131.835 144.566 130.781 143.788 130.003C143.01 129.227 141.955 128.789 140.856 128.788V128.785Z" fill="#FF8CB6"/>
<path d="M200.545 97.0185C199.772 94.716 196.742 94.1176 194.691 95.2185C192.638 96.3201 191.353 98.526 190.175 100.626C190.662 99.5076 190.2 98.0285 189.182 97.4426C188.164 96.856 186.748 97.2526 186.135 98.2976C187.382 96.6018 187.087 93.8593 185.511 92.5101C183.935 91.161 181.352 91.4418 180.064 93.1068C178.798 94.7393 178.885 97.0718 178.502 99.1493C178.121 101.227 176.604 103.533 174.654 103.112C173.562 102.876 172.79 101.853 171.799 101.312C169.962 100.313 167.41 101.389 166.714 103.455C166.019 105.521 167.347 108.082 169.36 108.546C169.36 108.546 164.717 108.397 164.993 111.232H191.311C191.311 111.232 196.68 101.685 200.545 97.0185Z" fill="#F576A5"/>
<path d="M191.311 111.748H164.997C164.867 111.748 164.742 111.7 164.646 111.613C164.549 111.526 164.489 111.406 164.476 111.277C164.43 110.925 164.464 110.568 164.574 110.231C164.683 109.893 164.867 109.585 165.11 109.328C165.735 108.659 166.722 108.331 167.589 108.169C167.204 107.823 166.879 107.413 166.628 106.959C166.309 106.408 166.108 105.797 166.038 105.164C165.968 104.531 166.031 103.891 166.222 103.283C166.426 102.698 166.756 102.163 167.189 101.718C167.622 101.273 168.148 100.928 168.728 100.708C169.259 100.488 169.831 100.388 170.404 100.414C170.979 100.44 171.539 100.591 172.049 100.857C172.459 101.096 172.849 101.372 173.211 101.681C173.728 102.094 174.215 102.487 174.763 102.604C174.999 102.652 175.242 102.65 175.477 102.598C175.712 102.548 175.934 102.448 176.129 102.306C176.989 101.733 177.736 100.426 177.989 99.0526C178.085 98.5301 178.152 97.9751 178.218 97.4376C178.418 95.7959 178.624 94.1084 179.652 92.7834C180.017 92.3234 180.471 91.9426 180.987 91.6626C181.502 91.3834 182.069 91.2109 182.654 91.1559C183.224 91.0926 183.8 91.1451 184.349 91.3093C184.899 91.4743 185.409 91.7476 185.85 92.1143C187.134 93.2126 187.668 95.0801 187.343 96.7576C187.689 96.6543 188.052 96.6226 188.411 96.6626C188.769 96.7026 189.117 96.8151 189.432 96.9918C190.047 97.3626 190.504 97.9468 190.717 98.6334C191.653 97.1293 192.815 95.6243 194.431 94.7526C195.09 94.4093 195.814 94.2084 196.556 94.1651C197.299 94.1226 198.041 94.2368 198.735 94.5026C199.267 94.6993 199.749 95.0126 200.145 95.4176C200.542 95.8234 200.844 96.3118 201.029 96.8484C201.057 96.9326 201.064 97.0226 201.047 97.1101C201.031 97.1976 200.993 97.2793 200.937 97.3484C197.144 101.925 191.808 111.377 191.755 111.478C191.711 111.558 191.647 111.625 191.569 111.673C191.491 111.72 191.402 111.746 191.311 111.748ZM165.529 110.703H191.008C191.893 109.152 196.48 101.2 199.949 96.9243C199.629 96.2534 199.059 95.7343 198.362 95.4784C197.809 95.2659 197.216 95.1743 196.624 95.2093C196.033 95.2434 195.455 95.4034 194.929 95.6784C192.948 96.7426 191.659 99.0376 190.623 100.881C190.557 100.997 190.449 101.083 190.321 101.123C190.194 101.163 190.055 101.151 189.935 101.092C189.816 101.032 189.724 100.928 189.678 100.803C189.632 100.678 189.635 100.539 189.689 100.417C190.068 99.5484 189.698 98.3468 188.915 97.8943C188.208 97.4884 187.236 97.7126 186.714 98.3643C186.662 98.4468 186.605 98.5276 186.547 98.6059C186.467 98.7126 186.349 98.7843 186.219 98.8068C186.088 98.8293 185.953 98.8009 185.842 98.7276C185.731 98.6543 185.652 98.5418 185.622 98.4126C185.591 98.2834 185.611 98.1468 185.677 98.0318C185.731 97.9384 185.792 97.8484 185.858 97.7634C186.771 96.2709 186.473 94.0318 185.164 92.9068C184.831 92.6326 184.446 92.4276 184.033 92.3051C183.619 92.1826 183.185 92.1443 182.756 92.1934C182.313 92.2343 181.882 92.3643 181.49 92.5751C181.098 92.7859 180.753 93.0743 180.474 93.4218C179.624 94.5184 179.444 95.9976 179.252 97.5618C179.185 98.1151 179.115 98.6868 179.014 99.2409C178.715 100.898 177.802 102.442 176.706 103.173C176.395 103.392 176.043 103.544 175.67 103.622C175.298 103.698 174.913 103.698 174.541 103.621C173.751 103.451 173.143 102.963 172.554 102.489C172.24 102.221 171.903 101.98 171.547 101.77C171.171 101.578 170.759 101.472 170.337 101.457C169.915 101.441 169.495 101.518 169.107 101.682C168.669 101.849 168.273 102.109 167.944 102.444C167.616 102.779 167.364 103.181 167.205 103.623C166.907 104.498 167.034 105.563 167.535 106.458C167.994 107.282 168.701 107.858 169.475 108.038C169.603 108.067 169.714 108.143 169.789 108.249C169.863 108.356 169.894 108.487 169.878 108.616C169.86 108.745 169.796 108.863 169.696 108.947C169.597 109.031 169.469 109.074 169.339 109.069C168.647 109.048 166.673 109.184 165.864 110.048C165.692 110.23 165.576 110.458 165.529 110.703Z" fill="#F576A5"/>
<path d="M229.483 76.8309C231.486 78.8801 230.744 82.2618 229.75 84.9493C226.186 94.5918 221.903 103.133 216.854 112.087C216.807 112.171 190.723 112.087 190.723 112.087C190.723 112.087 196.337 101.417 209.544 86.6867C223.887 70.6884 228.274 75.5984 229.483 76.8309Z" fill="#FF8CB6"/>
<path d="M210.049 112.646C208.281 112.646 206.18 112.646 203.769 112.646C197.315 112.635 190.784 112.615 190.719 112.615C190.629 112.615 190.541 112.591 190.463 112.546C190.385 112.502 190.32 112.439 190.274 112.361C190.228 112.285 190.202 112.197 190.199 112.107C190.197 112.018 190.218 111.929 190.259 111.85C190.316 111.742 196.057 100.955 209.154 86.3429C216.044 78.6571 221.599 74.7188 225.664 74.6363C228.024 74.5854 229.23 75.8304 229.809 76.4271L229.857 76.4754C231.608 78.2663 231.731 81.1013 230.239 85.1396C227.064 93.7329 223.075 102.125 217.309 112.352C217.159 112.62 216.946 112.624 216.563 112.633C216.367 112.633 216.082 112.633 215.721 112.643C215.003 112.643 213.978 112.652 212.751 112.654L210.049 112.646ZM191.609 111.565C198.755 111.586 214.321 111.624 216.54 111.576C222.203 101.513 226.13 93.2346 229.26 84.7671C230.603 81.1446 230.549 78.6671 229.11 77.1946L229.063 77.1438C228.549 76.6171 227.594 75.6346 225.687 75.6721C223.099 75.7263 218.265 77.7396 209.934 87.0321C198.914 99.3263 193.145 108.878 191.609 111.565Z" fill="#FF8CB6"/>
<path d="M219.27 112.087H162.666L160.734 178.687C160.728 178.896 160.764 179.104 160.841 179.3C160.917 179.495 161.031 179.674 161.177 179.824C161.323 179.974 161.498 180.094 161.691 180.175C161.884 180.257 162.092 180.299 162.302 180.299H219.634C219.844 180.299 220.051 180.257 220.244 180.175C220.437 180.094 220.612 179.974 220.758 179.824C220.904 179.674 221.018 179.495 221.094 179.3C221.17 179.104 221.206 178.896 221.2 178.687L219.27 112.087ZM190.751 160.419C188.124 160.419 185.556 159.641 183.372 158.181C181.187 156.722 179.485 154.648 178.48 152.22C177.474 149.794 177.212 147.123 177.724 144.546C178.237 141.969 179.502 139.603 181.359 137.745C183.217 135.888 185.583 134.623 188.159 134.11C190.736 133.598 193.407 133.861 195.833 134.866C198.261 135.872 200.335 137.574 201.795 139.759C203.254 141.943 204.033 144.51 204.033 147.138C204.033 150.66 202.633 154.039 200.142 156.529C197.652 159.02 194.273 160.419 190.751 160.419Z" fill="#F24182"/>
<path d="M219.635 180.82H162.302C162.022 180.82 161.745 180.764 161.488 180.655C161.23 180.547 160.998 180.388 160.803 180.187C160.608 179.987 160.455 179.749 160.354 179.489C160.253 179.229 160.205 178.95 160.212 178.671L162.144 112.07C162.148 111.934 162.205 111.805 162.302 111.711C162.4 111.617 162.53 111.564 162.666 111.564H219.27C219.406 111.564 219.536 111.617 219.634 111.711C219.731 111.806 219.788 111.934 219.791 112.07L221.723 178.671C221.73 178.95 221.683 179.229 221.581 179.489C221.48 179.749 221.327 179.987 221.132 180.187C220.938 180.388 220.705 180.547 220.447 180.655C220.19 180.764 219.913 180.82 219.634 180.82H219.635ZM163.174 112.609L161.257 178.702C161.254 178.842 161.278 178.981 161.329 179.111C161.379 179.241 161.455 179.359 161.553 179.459C161.65 179.559 161.767 179.639 161.895 179.693C162.024 179.748 162.162 179.775 162.302 179.775H219.635C219.775 179.775 219.913 179.748 220.041 179.693C220.17 179.639 220.286 179.559 220.384 179.459C220.481 179.359 220.558 179.241 220.609 179.111C220.66 178.981 220.684 178.842 220.68 178.702L218.764 112.609H163.174ZM190.751 160.941C188.02 160.941 185.35 160.131 183.08 158.614C180.81 157.097 179.04 154.94 177.995 152.418C176.95 149.894 176.676 147.119 177.209 144.44C177.742 141.762 179.057 139.301 180.988 137.37C182.919 135.439 185.379 134.124 188.058 133.591C190.736 133.059 193.512 133.332 196.035 134.377C198.558 135.422 200.715 137.192 202.232 139.463C203.749 141.734 204.559 144.403 204.559 147.134C204.555 150.794 203.099 154.304 200.51 156.892C197.921 159.481 194.412 160.937 190.751 160.941ZM190.751 134.377C188.227 134.377 185.76 135.125 183.66 136.528C181.562 137.93 179.925 139.924 178.96 142.255C177.994 144.588 177.741 147.154 178.234 149.629C178.726 152.105 179.941 154.379 181.726 156.164C183.511 157.949 185.785 159.165 188.261 159.658C190.737 160.149 193.303 159.897 195.635 158.931C197.968 157.965 199.96 156.329 201.363 154.23C202.765 152.132 203.514 149.664 203.514 147.139C203.512 143.755 202.166 140.509 199.774 138.115C197.381 135.721 194.136 134.374 190.751 134.371V134.377ZM49.1205 126.367C46.0933 124.565 42.5322 123.875 39.0513 124.418C37.2246 124.716 35.3607 125.408 34.207 126.85C33.0534 128.294 32.8743 130.62 34.207 131.909C35.1024 132.781 36.4456 133.009 37.6917 133.038C38.9379 133.066 40.2183 132.939 41.4227 133.269C42.6271 133.599 43.7882 134.545 43.8702 135.794C43.8702 135.921 55.6049 135.809 55.6049 135.809C55.6049 135.809 55.8212 133.432 52.6857 129.358C51.7322 128.129 50.4547 127.169 49.1205 126.367Z" fill="#F24182"/>
<path d="M47.3758 136.379C46.7311 136.379 46.17 136.379 45.6984 136.379C45.1164 136.379 44.6656 136.37 44.3552 136.361C43.8075 136.344 43.3747 136.333 43.3419 135.835C43.2732 134.791 42.2255 134.044 41.2794 133.78C40.4481 133.554 39.5706 133.561 38.6424 133.569C38.3245 133.569 37.9976 133.569 37.6723 133.569C35.9336 133.53 34.6785 133.112 33.8354 132.291C32.2221 130.723 32.5594 128.081 33.7965 126.534C34.874 125.19 36.662 124.279 38.9677 123.911C42.5697 123.356 46.2528 124.069 49.3875 125.928C51.0426 126.922 52.2231 127.913 53.0931 129.047C56.3167 133.236 56.1287 135.763 56.1182 135.865C56.1065 135.994 56.0474 136.114 55.9525 136.201C55.8577 136.288 55.7338 136.337 55.6049 136.339C55.5765 136.339 52.638 136.367 49.7383 136.379C48.8568 136.378 48.0693 136.378 47.3758 136.379ZM44.3179 135.309C45.779 135.355 51.253 135.327 55.0482 135.294C54.9318 134.446 54.4274 132.485 52.2679 129.677C51.4769 128.649 50.392 127.736 48.8518 126.815C45.9278 125.083 42.4929 124.418 39.1334 124.935C37.7081 125.162 35.768 125.737 34.6144 127.174C33.6578 128.368 33.41 130.408 34.5651 131.532C35.2099 132.159 36.2351 132.479 37.6991 132.512C38.0066 132.519 38.326 132.512 38.6364 132.512C39.5945 132.512 40.587 132.495 41.5585 132.761C42.7584 133.095 44.0075 133.994 44.3179 135.309Z" fill="#F24182"/>
<path d="M29.6632 135.811H88.8128L90.8244 193.199C90.8353 193.379 90.8103 193.558 90.7503 193.728C90.6903 193.898 90.5961 194.054 90.4753 194.186C90.3536 194.319 90.2069 194.426 90.0436 194.501C89.8794 194.576 89.7028 194.617 89.5228 194.623H28.9483C28.7685 194.617 28.5916 194.576 28.428 194.501C28.2644 194.426 28.1177 194.319 27.9963 194.186C27.8748 194.054 27.7814 193.898 27.7214 193.728C27.6614 193.558 27.6361 193.379 27.647 193.199L29.6632 135.811Z" fill="#F576A5"/>
<path d="M89.5285 195.145H28.9491C28.7082 195.145 28.4698 195.097 28.2483 195.002C28.0269 194.907 27.8272 194.768 27.6612 194.593C27.482 194.405 27.3423 194.185 27.2503 193.942C27.1583 193.7 27.1158 193.44 27.1253 193.181L29.1416 135.792C29.1463 135.656 29.2033 135.528 29.3008 135.434C29.3983 135.34 29.5284 135.287 29.6639 135.287H88.8135C88.9485 135.287 89.0793 135.34 89.1768 135.434C89.2735 135.528 89.331 135.656 89.336 135.792L91.3518 193.181C91.3618 193.44 91.3193 193.7 91.2268 193.942C91.1352 194.185 90.9952 194.405 90.816 194.593C90.6502 194.768 90.4502 194.907 90.2285 195.002C90.0077 195.097 89.7693 195.145 89.5285 195.145ZM30.1683 136.338L28.1701 193.223C28.165 193.342 28.1838 193.461 28.2253 193.573C28.2668 193.685 28.3303 193.787 28.4118 193.874C28.481 193.947 28.5643 194.005 28.6567 194.045C28.749 194.085 28.8484 194.106 28.9491 194.107H89.5285C89.6285 194.106 89.7285 194.085 89.8202 194.045C89.9127 194.005 89.996 193.947 90.0652 193.874C90.1469 193.787 90.2102 193.685 90.2518 193.573C90.2935 193.461 90.3119 193.342 90.3069 193.223L88.3085 136.338H30.1683Z" fill="#F576A5"/>
<path d="M59.2388 175.469C65.9917 175.469 71.466 169.994 71.466 163.241C71.466 156.489 65.9917 151.014 59.2388 151.014C52.486 151.014 47.0117 156.489 47.0117 163.241C47.0117 169.994 52.486 175.469 59.2388 175.469Z" fill="#FF8CB6"/>
<path d="M59.2387 175.991C56.7171 175.991 54.2521 175.243 52.1556 173.843C50.0589 172.442 48.4247 170.45 47.4598 168.121C46.4948 165.791 46.2423 163.228 46.7342 160.754C47.2262 158.281 48.4405 156.009 50.2235 154.227C52.0066 152.443 54.2783 151.229 56.7515 150.738C59.2246 150.245 61.7881 150.498 64.1178 151.463C66.4475 152.428 68.4386 154.062 69.8396 156.158C71.2405 158.255 71.9882 160.72 71.9882 163.242C71.9843 166.622 70.6398 169.863 68.2496 172.253C65.8595 174.643 62.6189 175.988 59.2387 175.991ZM59.2387 151.537C56.9237 151.537 54.6607 152.223 52.7359 153.509C50.8111 154.796 49.3108 156.623 48.4249 158.763C47.539 160.901 47.3072 163.255 47.7589 165.525C48.2105 167.796 49.3252 169.881 50.9622 171.518C52.5991 173.155 54.6847 174.27 56.9552 174.722C59.2258 175.173 61.5792 174.942 63.718 174.056C65.8568 173.169 67.6848 171.669 68.971 169.744C70.2571 167.82 70.9436 165.557 70.9436 163.242C70.9404 160.138 69.7062 157.163 67.5118 154.968C65.3174 152.774 62.3421 151.54 59.2387 151.537ZM122.464 25.0703C102.278 25.0703 104.299 47.0726 104.299 47.0726C124.986 40.9597 139.179 44.737 139.179 44.737C140.39 40.9388 139.407 25.0703 122.464 25.0703ZM115.689 39.2361C115.689 39.2361 115.97 30.7294 123.244 30.1906C130.408 29.6609 131.004 37.9511 131.004 37.9511C131.004 37.9511 130.659 36.4691 115.684 39.2361H115.689Z" fill="#FF8CB6"/>
<path d="M104.293 47.5964C104.164 47.5955 104.039 47.5465 103.942 47.4589C103.846 47.3712 103.786 47.2511 103.774 47.1218C103.734 46.689 102.87 36.4467 108.887 29.8504C112.099 26.3313 116.664 24.5479 122.459 24.5479C128.805 24.5479 133.594 26.6924 136.687 30.9234C140.35 35.9334 140.444 42.4954 139.68 44.8951C139.639 45.0232 139.55 45.1307 139.432 45.1954C139.315 45.2602 139.176 45.2771 139.046 45.2429C139.012 45.2324 135.465 44.3071 129.44 44.134C123.889 43.9744 115.045 44.4414 104.441 47.5739C104.393 47.5888 104.344 47.5964 104.293 47.5964ZM122.463 25.5926C116.977 25.5926 112.671 27.2596 109.667 30.5503C104.79 35.8915 104.7 44.0609 104.785 46.3875C115.256 43.3759 123.991 42.9282 129.516 43.0909C134.387 43.2401 137.617 43.846 138.81 44.1116C139.344 41.6239 139.027 35.8886 135.849 31.5398C132.958 27.5924 128.454 25.5926 122.463 25.5926ZM115.688 39.7584C115.618 39.7582 115.548 39.7439 115.484 39.7165C115.42 39.6891 115.361 39.649 115.312 39.5986C115.264 39.5483 115.225 39.4886 115.2 39.4233C115.175 39.3579 115.163 39.2881 115.165 39.2181C115.263 37.6621 115.632 36.1352 116.256 34.7066C117.622 31.6487 120.023 29.9085 123.202 29.6743C125.28 29.525 127.04 30.0534 128.435 31.2592C131.18 33.6335 131.503 37.7451 131.516 37.9197C131.524 38.0314 131.495 38.1425 131.435 38.2369C131.375 38.3314 131.286 38.4039 131.182 38.444C131.078 38.4842 130.963 38.4897 130.855 38.4598C130.747 38.4299 130.652 38.3661 130.583 38.2779C130.285 38.1286 128.161 37.466 115.777 39.7539C115.746 39.7583 115.715 39.7598 115.683 39.7584H115.688ZM123.895 30.6891C123.697 30.6891 123.494 30.6965 123.287 30.7114C120.487 30.9189 118.45 32.3949 117.232 35.1006C116.745 36.2137 116.423 37.3915 116.275 38.5973C122.168 37.5272 126.436 37.0004 128.97 37.0347C129.435 37.0334 129.9 37.0678 130.361 37.1377C130.166 36.0763 129.818 35.0487 129.328 34.0873C128.143 31.8293 126.315 30.6891 123.887 30.6891H123.895Z" fill="#FF8CB6"/>
<path d="M38.719 110.18C31.4481 110.18 24.1772 107.576 18.6941 102.734C18.6415 102.689 18.5984 102.634 18.5673 102.572C18.5362 102.51 18.5177 102.443 18.513 102.374C18.5082 102.304 18.5172 102.235 18.5395 102.169C18.5619 102.104 18.597 102.044 18.643 101.992C18.689 101.939 18.7448 101.898 18.8072 101.868C18.8696 101.837 18.9374 101.82 19.0066 101.816C19.0758 101.813 19.145 101.823 19.2103 101.846C19.2755 101.869 19.3355 101.906 19.3866 101.953C26.9232 108.607 37.9654 110.881 47.5182 107.75C47.5838 107.727 47.6534 107.718 47.7229 107.721C47.7923 107.725 47.8603 107.744 47.9227 107.774C47.9851 107.805 48.0408 107.848 48.0865 107.9C48.132 107.953 48.1667 108.014 48.1885 108.08C48.2101 108.146 48.2184 108.216 48.2127 108.285C48.207 108.355 48.1875 108.423 48.1554 108.484C48.1233 108.546 48.0791 108.6 48.0255 108.645C47.972 108.689 47.9101 108.723 47.8435 108.743C44.8971 109.701 41.8174 110.186 38.719 110.18Z" fill="#660B2C"/>
<path d="M20.8718 132.523C20.7481 132.523 20.6285 132.478 20.5342 132.398C20.4399 132.318 20.377 132.207 20.357 132.085C18.769 122.401 18.1184 111.832 18.5183 102.321C18.5212 102.253 18.5376 102.185 18.5666 102.123C18.5956 102.06 18.6365 102.004 18.6871 101.958C18.7377 101.912 18.797 101.876 18.8615 101.852C18.926 101.828 18.9945 101.818 19.063 101.821C19.1316 101.824 19.199 101.84 19.2612 101.869C19.3235 101.898 19.3794 101.939 19.4258 101.99C19.4722 102.04 19.5082 102.099 19.5318 102.164C19.5553 102.228 19.5659 102.297 19.563 102.366C19.163 111.807 19.8107 122.301 21.3882 131.915C21.4097 132.051 21.3765 132.191 21.2956 132.303C21.2148 132.414 21.093 132.489 20.9569 132.512C20.9288 132.518 20.9004 132.521 20.8718 132.523ZM49.272 125.228C49.1503 125.227 49.0325 125.184 48.9391 125.107C48.8456 125.028 48.7824 124.92 48.7601 124.801C47.7218 119.271 47.2374 113.652 47.314 108.026C47.316 107.888 47.3729 107.756 47.4722 107.659C47.5716 107.563 47.7052 107.509 47.8438 107.512C47.9823 107.513 48.1144 107.57 48.211 107.669C48.3075 107.769 48.3606 107.903 48.3586 108.041C48.2836 113.597 48.762 119.146 49.7869 124.607C49.8009 124.683 49.798 124.76 49.7787 124.834C49.7593 124.908 49.7238 124.978 49.6746 125.037C49.6255 125.096 49.564 125.143 49.4944 125.177C49.4248 125.209 49.3489 125.226 49.272 125.226V125.228ZM194.657 92.2143C194.53 92.2143 194.406 92.1668 194.311 92.0818C194.216 91.996 194.155 91.8793 194.14 91.7518C193.39 85.2902 191.769 78.9593 189.322 72.931C189.293 72.8668 189.277 72.7976 189.276 72.7276C189.273 72.6568 189.286 72.5868 189.312 72.521C189.338 72.456 189.377 72.396 189.426 72.346C189.476 72.296 189.536 72.2568 189.601 72.2302C189.666 72.2035 189.736 72.1902 189.806 72.1918C189.877 72.1927 189.946 72.2085 190.011 72.2376C190.076 72.266 190.133 72.3077 190.181 72.3593C190.229 72.4118 190.266 72.4726 190.29 72.5385C192.773 78.6535 194.417 85.0768 195.177 91.6326C195.185 91.701 195.18 91.7693 195.161 91.836C195.142 91.9018 195.111 91.9635 195.068 92.0168C195.026 92.071 194.973 92.116 194.913 92.1493C194.853 92.1827 194.787 92.2035 194.719 92.2118L194.657 92.2143ZM222.356 75.8726C222.238 75.8726 222.123 75.8326 222.031 75.7593C221.938 75.6851 221.874 75.5826 221.847 75.4668C221.267 72.9026 218.079 63.031 218.048 62.931C218.026 62.8652 218.019 62.7968 218.024 62.7285C218.03 62.6601 218.048 62.5935 218.08 62.5318C218.111 62.471 218.154 62.4168 218.206 62.3718C218.258 62.3276 218.318 62.2935 218.384 62.2727C218.449 62.2518 218.518 62.2435 218.586 62.2485C218.655 62.2543 218.721 62.2735 218.782 62.3043C218.843 62.3352 218.898 62.3785 218.942 62.4302C218.986 62.4827 219.021 62.5435 219.041 62.6085C219.173 63.0177 222.276 72.6252 222.866 75.2343C222.881 75.301 222.882 75.3702 222.871 75.4377C222.859 75.506 222.835 75.5702 222.798 75.6285C222.761 75.6868 222.714 75.7368 222.657 75.776C222.601 75.816 222.538 75.8443 222.471 75.8593C222.434 75.8685 222.395 75.8726 222.356 75.8726Z" fill="#660B2C"/>
<path d="M189.802 73.0337C189.733 73.0345 189.665 73.0211 189.602 72.9953C189.537 72.9695 189.48 72.932 189.431 72.8836C189.382 72.8353 189.343 72.7786 189.317 72.7153C189.289 72.652 189.276 72.5845 189.275 72.5161C189.274 72.447 189.287 72.3795 189.312 72.3153C189.338 72.252 189.377 72.1936 189.425 72.1453C189.472 72.0961 189.53 72.057 189.593 72.0303C189.657 72.0036 189.724 71.9895 189.792 71.9886C200.084 71.8053 210.031 68.2495 218.107 61.8678C218.16 61.822 218.222 61.7886 218.288 61.7678C218.355 61.747 218.426 61.7395 218.495 61.747C218.565 61.7536 218.632 61.7745 218.694 61.8078C218.755 61.8411 218.809 61.887 218.852 61.942C218.896 61.9962 218.928 62.0595 218.947 62.127C218.966 62.1945 218.971 62.2645 218.962 62.3345C218.952 62.4037 218.929 62.4703 218.894 62.5303C218.859 62.5911 218.812 62.6436 218.756 62.6853C210.497 69.2103 200.327 72.8453 189.803 73.0303L189.802 73.0337ZM209.419 105.474C208.457 105.474 207.506 104.921 207.109 104.692L199.382 100.214C199.281 100.137 199.211 100.025 199.186 99.9003C199.161 99.7745 199.182 99.6445 199.247 99.5345C199.312 99.4236 199.414 99.3411 199.536 99.3011C199.657 99.262 199.789 99.2678 199.907 99.3186L207.632 103.796C208.789 104.466 209.572 104.609 210.047 104.234C210.346 103.999 210.478 103.535 210.402 103.051C210.327 102.568 210.086 102.117 209.744 101.579C208.048 98.9095 205.737 96.6861 203.005 95.0953C202.942 95.0628 202.887 95.0178 202.843 94.9628C202.799 94.9086 202.766 94.8453 202.747 94.7778C202.727 94.7103 202.722 94.6395 202.73 94.5695C202.739 94.4995 202.762 94.4328 202.797 94.372C202.832 94.3111 202.879 94.2578 202.936 94.2153C202.992 94.1736 203.057 94.1428 203.125 94.1261C203.193 94.1095 203.264 94.107 203.333 94.1186C203.402 94.1295 203.469 94.1553 203.528 94.1928C206.407 95.8678 208.841 98.2086 210.627 101.019C210.983 101.58 211.327 102.194 211.435 102.89C211.57 103.75 211.286 104.577 210.701 105.049C210.336 105.334 209.882 105.485 209.419 105.474ZM217.181 92.3886C216.607 92.3886 215.863 92.1811 214.914 91.6061L209.138 88.107C209.02 88.0353 208.934 87.9186 208.902 87.7845C208.868 87.6495 208.89 87.507 208.962 87.3878C209.033 87.2695 209.15 87.1845 209.284 87.1511C209.419 87.1178 209.562 87.1395 209.68 87.2111L215.454 90.7111C216.084 91.0912 217.222 91.6528 217.781 91.1261C218.254 90.6778 217.988 89.7336 217.617 89.0586C216.469 87.0061 214.655 85.407 212.474 84.5261C212.345 84.4753 212.242 84.3753 212.187 84.2478C212.132 84.1211 212.13 83.977 212.181 83.8478C212.232 83.7195 212.332 83.6161 212.459 83.5611C212.587 83.5061 212.73 83.5037 212.859 83.5553C215.271 84.5153 217.275 86.282 218.53 88.5545C219.277 89.9128 219.267 91.1586 218.497 91.8853C218.142 92.2195 217.669 92.4003 217.181 92.3886ZM181.767 110.193C181.657 110.192 181.549 110.158 181.46 110.093C181.371 110.029 181.304 109.938 181.27 109.833C180.252 106.754 179.659 103.549 179.507 100.31C179.501 100.171 179.549 100.036 179.642 99.9336C179.736 99.8311 179.867 99.7695 180.005 99.7628C180.143 99.7561 180.279 99.8053 180.382 99.8986C180.484 99.992 180.545 100.122 180.552 100.261C180.699 103.409 181.275 106.521 182.263 109.514C182.285 109.579 182.293 109.648 182.288 109.716C182.283 109.784 182.265 109.851 182.234 109.912C182.203 109.974 182.16 110.028 182.108 110.073C182.057 110.118 181.996 110.152 181.931 110.174C181.877 110.189 181.822 110.195 181.767 110.193ZM184.139 109.402C184.03 109.402 183.922 109.367 183.833 109.303C183.745 109.239 183.678 109.148 183.644 109.044C183.058 107.279 182.832 105.415 182.976 103.562C182.981 103.494 183 103.426 183.031 103.365C183.062 103.304 183.105 103.249 183.157 103.204C183.21 103.16 183.27 103.126 183.336 103.104C183.402 103.084 183.47 103.075 183.539 103.08C183.607 103.086 183.674 103.104 183.736 103.136C183.797 103.167 183.852 103.21 183.896 103.263C183.941 103.315 183.975 103.375 183.996 103.441C184.017 103.506 184.026 103.575 184.02 103.644C183.887 105.359 184.097 107.084 184.638 108.718C184.664 108.797 184.671 108.88 184.658 108.962C184.646 109.044 184.614 109.121 184.566 109.189C184.517 109.255 184.453 109.31 184.38 109.348C184.307 109.386 184.225 109.406 184.142 109.406L184.139 109.402ZM187.654 109.599C187.525 109.599 187.4 109.551 187.304 109.464C187.208 109.378 187.147 109.259 187.135 109.13C186.959 107.404 187.158 105.659 187.72 104.017C187.741 103.951 187.775 103.889 187.82 103.837C187.865 103.784 187.921 103.74 187.982 103.709C188.045 103.678 188.112 103.659 188.182 103.654C188.252 103.65 188.321 103.659 188.387 103.682C188.452 103.704 188.513 103.739 188.565 103.786C188.617 103.832 188.659 103.889 188.689 103.951C188.719 104.014 188.736 104.082 188.739 104.152C188.742 104.221 188.732 104.29 188.707 104.356C188.195 105.856 188.013 107.449 188.173 109.027C188.187 109.164 188.147 109.303 188.059 109.41C187.972 109.518 187.846 109.586 187.707 109.6L187.654 109.599Z" fill="#660B2C"/>
<path d="M212.293 66.4505C212.166 66.4505 212.042 66.4038 211.947 66.3188C211.852 66.2338 211.791 66.1171 211.776 65.9905C210.835 58.0674 207.769 50.546 202.903 44.2226C200.067 40.5393 197.246 38.3604 194.272 37.565C190.751 36.6218 186.587 37.6381 183.404 40.22C179.864 43.0928 178.112 47.1656 177.267 50.0697C176.479 52.7784 176.409 54.9483 177.052 56.7034C177.752 58.6105 179.755 60.3638 181.897 59.9955C182.033 59.9721 182.173 60.0038 182.287 60.0838C182.4 60.1638 182.477 60.2855 182.5 60.4213C182.523 60.558 182.492 60.6988 182.412 60.8121C182.332 60.9246 182.211 61.0021 182.074 61.0255C179.387 61.4863 176.917 59.373 176.072 57.0631C175.349 55.0916 175.412 52.7082 176.262 49.7787C177.536 45.3986 179.777 41.8108 182.746 39.4021C186.178 36.6143 190.704 35.5219 194.536 36.5501C197.738 37.4068 200.744 39.7066 203.724 43.5793C208.705 50.0518 211.843 57.7506 212.807 65.8605C212.823 65.998 212.784 66.1363 212.698 66.2455C212.613 66.3546 212.487 66.4246 212.35 66.4413C212.332 66.4455 212.312 66.4488 212.293 66.4505Z" fill="#660B2C"/>
<path d="M186.264 62.9464C184.755 62.9464 183.18 62.1314 182.235 60.7655C181.246 59.3522 180.869 57.4258 181.169 55.341C181.43 53.5277 182.131 51.8428 182.81 50.2116C182.865 50.0872 182.968 49.9895 183.095 49.9392C183.221 49.889 183.362 49.8901 183.488 49.9425C183.614 49.9949 183.714 50.0943 183.767 50.2195C183.821 50.3448 183.824 50.486 183.775 50.613C183.122 52.183 182.448 53.8068 182.205 55.4902C181.942 57.3109 182.256 58.9722 183.1 60.1689C184.041 61.5197 185.726 62.1989 187.102 61.7839C187.169 61.7605 187.24 61.7505 187.31 61.7555C187.38 61.7597 187.45 61.7789 187.513 61.8114C187.575 61.843 187.631 61.888 187.676 61.9422C187.722 61.9964 187.755 62.0597 187.775 62.1272C187.796 62.1947 187.802 62.2655 187.795 62.3364C187.786 62.4064 187.764 62.4739 187.729 62.5355C187.694 62.5972 187.646 62.6505 187.59 62.693C187.534 62.7355 187.47 62.7664 187.4 62.7839C187.032 62.8939 186.649 62.9489 186.264 62.9464Z" fill="#660B2C"/>
<path d="M193.07 65.59C191.475 65.59 190.005 65.0917 188.938 64.1692C187.389 62.8258 186.632 60.48 186.964 58.0386C187.249 55.9493 188.194 54.0375 189.224 52.1078C189.293 51.9924 189.404 51.9078 189.533 51.8718C189.662 51.8357 189.8 51.8508 189.919 51.914C190.038 51.9772 190.127 52.0836 190.169 52.2111C190.211 52.3387 190.203 52.4775 190.145 52.5988C189.163 54.4404 188.26 56.2537 187.999 58.1789C187.777 59.8208 188.085 62.05 189.621 63.3783C190.683 64.2958 192.253 64.7025 193.93 64.4917C195.649 64.275 197.228 63.4783 198.407 62.8083C199.568 62.1517 200.816 61.3158 201.26 60.05C201.367 59.715 201.398 59.3608 201.351 59.0125C201.304 58.6642 201.18 58.3304 200.989 58.0356C200.878 57.8498 200.724 57.6929 200.542 57.5778C200.359 57.4626 200.151 57.3924 199.935 57.373C199.797 57.3655 199.667 57.3033 199.574 57.1999C199.482 57.0967 199.434 56.9608 199.441 56.8223C199.449 56.6838 199.511 56.5539 199.614 56.4613C199.718 56.3686 199.854 56.3208 199.992 56.3283C200.37 56.3545 200.736 56.4702 201.06 56.6658C201.385 56.8615 201.658 57.1315 201.858 57.4536C202.139 57.8838 202.319 58.3717 202.386 58.8808C202.454 59.39 202.405 59.9083 202.245 60.3967C201.686 61.9817 200.252 62.9633 198.922 63.7158C197.655 64.4333 195.957 65.2875 194.057 65.5258C193.729 65.5675 193.4 65.5892 193.07 65.59Z" fill="#660B2C"/>
<path d="M195.827 60.525C195.717 60.5233 195.61 60.4867 195.523 60.4208C195.434 60.355 195.369 60.2633 195.336 60.1583C195.303 60.0533 195.304 59.9408 195.338 59.8367C195.373 59.7325 195.439 59.6417 195.528 59.5775C198.016 57.7933 199.992 55.3889 201.262 52.6033C201.289 52.5397 201.329 52.4823 201.379 52.4344C201.43 52.3865 201.489 52.3491 201.553 52.3242C201.618 52.2994 201.688 52.2878 201.757 52.2898C201.826 52.2919 201.894 52.3078 201.957 52.3365C202.02 52.3652 202.077 52.4062 202.124 52.4571C202.171 52.508 202.208 52.5677 202.231 52.6328C202.255 52.6979 202.266 52.7671 202.262 52.8363C202.259 52.9056 202.243 52.9735 202.213 53.0361C200.868 55.9889 198.774 58.5383 196.138 60.4292C196.048 60.4933 195.938 60.5267 195.827 60.525ZM175.928 53.4495C175.895 53.4495 175.863 53.4465 175.83 53.4405C174.702 53.2271 174.039 52.1048 173.975 51.1079C173.909 50.1393 174.273 49.2499 174.664 48.4336C176.197 45.2861 178.484 42.5664 181.322 40.5164C181.378 40.4738 181.441 40.4428 181.508 40.4253C181.576 40.4076 181.647 40.4038 181.716 40.4138C181.785 40.4239 181.851 40.4478 181.911 40.4839C181.971 40.5202 182.023 40.568 182.063 40.6246C182.104 40.6813 182.133 40.7455 182.149 40.8136C182.165 40.8817 182.167 40.9522 182.154 41.021C182.143 41.0898 182.117 41.1555 182.079 41.2142C182.041 41.2728 181.992 41.3233 181.934 41.3626C179.237 43.3103 177.063 45.894 175.604 48.8843C175.27 49.5707 174.967 50.3065 175.017 51.0303C175.057 51.6272 175.445 52.2988 176.026 52.4092C176.152 52.4349 176.264 52.5063 176.341 52.6098C176.418 52.7133 176.454 52.8417 176.442 52.97C176.43 53.0983 176.371 53.2177 176.276 53.3052C176.181 53.3926 176.057 53.4418 175.928 53.4435V53.4495ZM179.819 31.4592C179.723 31.4594 179.63 31.4333 179.548 31.3839C179.467 31.3344 179.4 31.2633 179.357 31.1786L176.339 25.3956C176.215 25.401 176.092 25.3617 175.995 25.2847C175.897 25.2078 175.831 25.0983 175.808 24.9763L175.597 23.9315C175.573 23.8085 175.593 23.6808 175.656 23.5718C175.718 23.4628 175.817 23.3798 175.935 23.3379C176.053 23.2961 176.183 23.2982 176.3 23.3439C176.417 23.3896 176.513 23.4758 176.572 23.5868L180.286 30.6965C180.327 30.7762 180.348 30.8651 180.345 30.9548C180.342 31.0446 180.317 31.1321 180.27 31.2088C180.223 31.2857 180.158 31.3492 180.08 31.3932C180.002 31.4373 179.913 31.4606 179.823 31.4607L179.819 31.4592ZM190.218 28.9117C190.084 28.9118 189.955 28.8605 189.858 28.7682C189.761 28.676 189.703 28.55 189.696 28.4162C189.206 18.6939 189.287 8.95125 189.938 -0.761582C189.942 -0.830165 189.96 -0.897165 189.991 -0.958748C190.021 -1.02042 190.063 -1.07541 190.115 -1.12066C190.167 -1.16591 190.228 -1.2005 190.293 -1.2225C190.358 -1.2445 190.427 -1.25341 190.495 -1.24883C190.563 -1.24425 190.631 -1.22616 190.693 -1.19566C190.753 -1.16516 190.808 -1.12283 190.854 -1.071C190.899 -1.01925 190.934 -0.959081 190.956 -0.893998C190.978 -0.828831 190.987 -0.759998 190.983 -0.691415C190.334 8.98017 190.254 18.6814 190.742 28.3624C190.746 28.4308 190.736 28.4993 190.713 28.5639C190.69 28.6285 190.654 28.6879 190.608 28.7388C190.563 28.7897 190.508 28.831 190.445 28.8604C190.383 28.8898 190.317 28.9067 190.248 28.9102L190.218 28.9117ZM197.762 28.1177C197.712 28.1169 197.662 28.1094 197.613 28.0953C197.481 28.0537 197.371 27.9618 197.306 27.8393C197.242 27.7169 197.228 27.574 197.268 27.4416L199.624 19.8304C199.666 19.698 199.758 19.5873 199.88 19.5227C200.003 19.458 200.146 19.4448 200.278 19.4857C200.411 19.5267 200.522 19.6186 200.586 19.7412C200.651 19.8638 200.664 20.007 200.623 20.1393L198.267 27.7506C198.233 27.858 198.167 27.9518 198.075 28.018C197.984 28.0842 197.874 28.1192 197.762 28.1177ZM207.464 35.4527C207.362 35.4528 207.262 35.4228 207.176 35.3664C207.091 35.3101 207.024 35.2298 206.983 35.1358C206.943 35.0416 206.932 34.9378 206.95 34.837C206.968 34.7363 207.016 34.6432 207.087 34.5692L218.478 22.7078C218.523 22.6507 218.58 22.6037 218.645 22.5698C218.709 22.5361 218.78 22.5162 218.853 22.5114C218.926 22.5068 218.999 22.5173 219.068 22.5425C219.136 22.5677 219.198 22.6069 219.251 22.6578C219.303 22.7085 219.344 22.7697 219.372 22.8373C219.398 22.905 219.412 22.9777 219.409 23.0505C219.407 23.1234 219.388 23.195 219.357 23.2607C219.325 23.3263 219.28 23.3845 219.224 23.4316L207.834 35.2916C207.787 35.3419 207.729 35.3821 207.666 35.4097C207.602 35.4374 207.533 35.4521 207.464 35.4527ZM119.491 98.8658C112.775 98.8658 106.74 97.5925 102.359 95.2317C102.242 95.1642 102.154 95.0533 102.117 94.9225C102.079 94.7908 102.095 94.6508 102.159 94.5308C102.224 94.4108 102.333 94.3208 102.463 94.28C102.593 94.2392 102.733 94.2508 102.855 94.3125C112.705 99.6225 129.851 98.445 138.59 93.8442C138.651 93.8092 138.718 93.7875 138.788 93.7792C138.858 93.7708 138.928 93.7767 138.996 93.7958C139.063 93.8158 139.125 93.8492 139.18 93.8933C139.234 93.9375 139.278 93.9925 139.312 94.0542C139.344 94.1167 139.364 94.1842 139.37 94.2542C139.376 94.3242 139.368 94.3942 139.346 94.4608C139.323 94.5275 139.288 94.5892 139.243 94.6417C139.196 94.6942 139.14 94.7375 139.077 94.7675C134.565 97.1433 128.033 98.6275 121.161 98.8392C120.601 98.8567 120.043 98.8658 119.491 98.8658Z" fill="#660B2C"/>
<path d="M102.709 103.38C102.631 103.379 102.555 103.362 102.485 103.329C102.195 103.191 101.826 102.83 101.543 101.251C101.245 99.557 100.975 95.4303 102.16 94.2203C102.259 94.1278 102.389 94.0778 102.524 94.0787C102.658 94.0803 102.787 94.1337 102.884 94.2278C102.98 94.322 103.036 94.4495 103.04 94.5845C103.045 94.7187 102.997 94.8503 102.907 94.9503C102.566 95.2995 102.26 96.6262 102.34 98.8078C102.411 100.748 102.755 102.148 102.973 102.408C103.071 102.466 103.147 102.555 103.19 102.661C103.233 102.767 103.24 102.885 103.21 102.995C103.18 103.105 103.114 103.202 103.023 103.272C102.932 103.341 102.821 103.379 102.707 103.38H102.709ZM138.796 102.345C138.698 102.345 138.601 102.318 138.518 102.266C138.435 102.214 138.367 102.14 138.325 102.05C138.282 101.962 138.265 101.864 138.276 101.766C138.287 101.668 138.325 101.575 138.387 101.499C139.514 100.078 139.581 95.8737 138.753 94.4995C138.68 94.3803 138.659 94.2387 138.692 94.1037C138.725 93.9687 138.81 93.8528 138.93 93.7812C139.048 93.7087 139.19 93.687 139.325 93.7203C139.46 93.7537 139.576 93.8387 139.648 93.9578C140.684 95.6662 140.629 100.357 139.21 102.148C139.16 102.21 139.097 102.26 139.025 102.295C138.954 102.329 138.875 102.345 138.796 102.345Z" fill="#660B2C"/>
<path d="M119.386 106.199C113.734 106.209 108.118 105.289 102.765 103.476C102.697 103.456 102.635 103.422 102.581 103.377C102.526 103.332 102.482 103.276 102.451 103.214C102.418 103.151 102.399 103.084 102.394 103.013C102.389 102.943 102.398 102.873 102.421 102.806C102.443 102.74 102.479 102.679 102.526 102.626C102.573 102.575 102.63 102.532 102.693 102.502C102.757 102.472 102.826 102.456 102.896 102.453C102.966 102.451 103.036 102.462 103.102 102.487C114.606 106.416 127.638 105.989 138.861 101.316C138.989 101.263 139.133 101.263 139.261 101.316C139.39 101.369 139.491 101.47 139.545 101.598C139.598 101.726 139.598 101.871 139.545 101.998C139.492 102.126 139.391 102.228 139.262 102.281C132.959 104.881 126.205 106.212 119.386 106.199Z" fill="#660B2C"/>
<path d="M54.533 124.101C54.4232 124.101 54.3159 124.066 54.2271 124.002C54.1149 123.921 54.0396 123.798 54.0174 123.661C53.9953 123.525 54.0284 123.385 54.1092 123.272C59.4475 115.903 66.8885 110.021 75.6294 106.259C84.3701 102.496 93.7576 101.145 102.778 102.34C102.915 102.358 103.039 102.431 103.123 102.541C103.208 102.651 103.245 102.789 103.227 102.926C103.208 103.064 103.137 103.188 103.027 103.272C102.917 103.356 102.778 103.394 102.64 103.376C84.7226 101.001 65.5588 109.242 54.9554 123.881C54.9075 123.949 54.8442 124.004 54.7708 124.042C54.6973 124.08 54.6159 124.1 54.533 124.101ZM163.64 103.087C163.578 103.087 163.518 103.076 163.459 103.055C155.582 100.171 146.983 99.9148 138.947 102.322C138.88 102.346 138.809 102.355 138.739 102.351C138.668 102.346 138.6 102.326 138.537 102.295C138.474 102.262 138.418 102.218 138.373 102.164C138.328 102.109 138.293 102.046 138.273 101.979C138.253 101.911 138.247 101.84 138.255 101.77C138.263 101.699 138.286 101.631 138.321 101.57C138.356 101.509 138.403 101.455 138.459 101.412C138.516 101.37 138.58 101.339 138.648 101.322C146.901 98.8473 155.733 99.1089 163.823 102.068C163.939 102.111 164.037 102.191 164.098 102.298C164.159 102.405 164.182 102.53 164.16 102.651C164.138 102.772 164.074 102.881 163.98 102.961C163.885 103.04 163.766 103.082 163.643 103.081L163.64 103.087ZM121.748 201.291C121.666 201.291 121.584 201.271 121.511 201.234C121.438 201.196 121.374 201.141 121.325 201.075C121.277 201.008 121.245 200.931 121.233 200.849C121.219 200.767 121.226 200.683 121.252 200.605C124.758 189.875 125.921 178.517 124.66 167.299C124.005 161.539 122.69 155.772 121.418 150.196C120.455 145.97 119.458 141.601 118.749 137.247C116.97 126.308 115.953 114.949 120.531 106.004C120.594 105.881 120.703 105.786 120.835 105.744C120.967 105.701 121.11 105.712 121.234 105.776C121.358 105.838 121.451 105.948 121.493 106.08C121.537 106.211 121.525 106.355 121.463 106.478C117.021 115.158 118.03 126.315 119.78 137.08C120.483 141.408 121.477 145.754 122.437 149.964C123.714 155.567 125.037 161.362 125.699 167.181C126.976 178.549 125.798 190.058 122.244 200.931C122.21 201.036 122.143 201.127 122.055 201.191C121.966 201.256 121.858 201.291 121.748 201.291ZM127.332 44.1621H127.071C127.002 44.1612 126.934 44.1467 126.871 44.1195C126.808 44.0923 126.751 44.0531 126.703 44.0038C126.656 43.9547 126.618 43.8965 126.593 43.8328C126.568 43.769 126.555 43.7009 126.556 43.6323C126.557 43.5638 126.571 43.496 126.598 43.433C126.626 43.37 126.665 43.313 126.714 43.2652C126.763 43.2173 126.822 43.1797 126.885 43.1543C126.949 43.129 127.017 43.1165 127.086 43.1174C128.192 43.1353 129.7 43.0473 130.615 42.7533C131.346 42.519 132.257 41.9131 132.442 40.9818C132.643 39.9253 131.758 38.8567 130.787 38.4328C129.685 37.9538 128.417 38 127.107 38.0956C122.784 38.4098 118.495 39.0797 114.283 40.0983C114.215 40.1167 114.144 40.1213 114.075 40.112C114.006 40.1027 113.939 40.0796 113.879 40.0441C113.819 40.0086 113.767 39.9614 113.725 39.9053C113.684 39.8492 113.654 39.7853 113.638 39.7175C113.621 39.6497 113.618 39.5793 113.629 39.5103C113.641 39.4414 113.666 39.3754 113.703 39.3163C113.74 39.2573 113.788 39.2062 113.846 39.1662C113.903 39.1263 113.968 39.0981 114.036 39.0835C118.304 38.0506 122.651 37.3703 127.03 37.0494C128.42 36.9494 129.885 36.9002 131.209 37.4733C132.533 38.0463 133.785 39.5462 133.474 41.1743C133.212 42.5533 131.993 43.4129 130.938 43.7458C129.787 44.1084 128.109 44.1621 127.332 44.1621ZM143.136 132.458C143.117 132.46 143.098 132.46 143.078 132.458C141.589 132.32 140.093 132.296 138.601 132.389C138.533 132.392 138.463 132.382 138.399 132.359C138.334 132.336 138.275 132.301 138.224 132.254C138.173 132.208 138.132 132.152 138.103 132.091C138.073 132.028 138.057 131.961 138.053 131.892C138.05 131.824 138.06 131.755 138.083 131.691C138.107 131.626 138.142 131.566 138.188 131.516C138.234 131.465 138.29 131.423 138.352 131.394C138.414 131.365 138.482 131.348 138.55 131.345C140.097 131.251 141.648 131.276 143.192 131.419C143.33 131.426 143.46 131.489 143.553 131.592C143.645 131.696 143.693 131.831 143.685 131.97C143.678 132.108 143.616 132.238 143.513 132.331C143.409 132.424 143.273 132.471 143.135 132.464L143.136 132.458ZM141.93 134.371L139.781 134.359C139.643 134.359 139.51 134.304 139.412 134.206C139.314 134.108 139.259 133.976 139.259 133.836C139.259 133.698 139.314 133.566 139.412 133.467C139.51 133.37 139.643 133.315 139.781 133.315L141.93 133.326C142.069 133.326 142.202 133.381 142.3 133.48C142.398 133.577 142.453 133.711 142.453 133.849C142.453 133.987 142.398 134.12 142.3 134.218C142.202 134.316 142.069 134.371 141.93 134.371ZM183.584 143.816C183.446 143.816 183.313 143.761 183.215 143.663C183.117 143.566 183.062 143.432 183.062 143.294C183.062 143.156 183.117 143.023 183.215 142.925C183.313 142.826 183.446 142.771 183.584 142.771C184.813 142.771 187.103 142.691 189.528 142.606C192.978 142.486 196.543 142.361 197.886 142.433C198.024 142.441 198.154 142.502 198.248 142.606C198.34 142.709 198.388 142.845 198.381 142.983C198.373 143.121 198.312 143.251 198.208 143.344C198.105 143.437 197.969 143.485 197.831 143.477C196.531 143.407 192.83 143.537 189.564 143.652C187.13 143.736 184.831 143.816 183.584 143.816ZM188.278 147.155C188.209 147.156 188.141 147.145 188.078 147.12C188.013 147.096 187.954 147.058 187.905 147.011C187.855 146.964 187.815 146.907 187.788 146.844C187.76 146.781 187.745 146.714 187.743 146.646C187.742 146.576 187.753 146.508 187.778 146.445C187.803 146.381 187.84 146.322 187.887 146.272C187.934 146.222 187.991 146.182 188.053 146.155C188.117 146.127 188.184 146.112 188.253 146.111L193.523 145.845C193.593 145.841 193.661 145.851 193.726 145.874C193.79 145.897 193.85 145.933 193.901 145.979C193.952 146.026 193.993 146.081 194.023 146.143C194.052 146.205 194.068 146.272 194.073 146.341C194.076 146.41 194.066 146.478 194.043 146.542C194.019 146.607 193.983 146.667 193.938 146.718C193.892 146.769 193.836 146.81 193.774 146.84C193.712 146.869 193.644 146.886 193.576 146.889L188.305 147.155H188.278ZM29.6728 66.9523C29.5865 66.9523 29.5017 66.9306 29.4257 66.8898C29.3497 66.8489 29.2849 66.7898 29.237 66.7181L25.9538 61.7531C25.9159 61.6956 25.8898 61.6314 25.8767 61.5639C25.8637 61.4973 25.864 61.4273 25.8778 61.3606C25.8914 61.2931 25.9183 61.2289 25.9567 61.1723C25.9951 61.1156 26.0443 61.0673 26.1015 61.0289C26.1588 60.9914 26.2228 60.9648 26.2902 60.9523C26.3576 60.9389 26.4268 60.9398 26.494 60.9531C26.5613 60.9664 26.6251 60.9939 26.6819 61.0323C26.7388 61.0706 26.7875 61.1198 26.8254 61.1764L30.1086 66.1406C30.1463 66.1981 30.1724 66.2623 30.1853 66.3298C30.1983 66.3973 30.1978 66.4664 30.1839 66.5331C30.1701 66.6006 30.1432 66.6648 30.1046 66.7214C30.066 66.7781 30.0167 66.8264 29.9593 66.8639C29.8748 66.9214 29.775 66.9523 29.6728 66.9523ZM37.9705 65.2589C37.8557 65.2581 37.7441 65.2206 37.653 65.1506C37.5618 65.0806 37.4962 64.9831 37.4661 64.8723L28.155 30.3262C28.119 30.1924 28.1376 30.0498 28.2068 29.9298C28.2759 29.8097 28.3899 29.722 28.5237 29.6859C28.6574 29.6499 28.8001 29.6685 28.9201 29.7377C29.0402 29.8068 29.1279 29.9208 29.1639 30.0546L38.4749 64.5989C38.493 64.6648 38.4978 64.7339 38.4889 64.8023C38.4802 64.8706 38.458 64.9364 38.4238 64.9956C38.3895 65.0556 38.3439 65.1073 38.2894 65.1489C38.2348 65.1906 38.1727 65.2214 38.1063 65.2389C38.0622 65.2523 38.0164 65.2589 37.9705 65.2589ZM47.2054 59.1948C47.0685 59.1948 46.9373 59.1406 46.8396 59.0448C46.742 58.9489 46.6858 58.8181 46.6831 58.6814L46.4712 46.3723C46.4688 46.2338 46.5215 46.1 46.6179 46.0004C46.7141 45.9008 46.846 45.8434 46.9845 45.8411C47.1231 45.8387 47.2568 45.8914 47.3565 45.9878C47.4562 46.084 47.5134 46.2159 47.5159 46.3544L47.7278 58.6639C47.7298 58.8023 47.6768 58.9356 47.5806 59.0348C47.4844 59.1339 47.3526 59.1914 47.2143 59.1931L47.2054 59.1948ZM59.8191 63.2814C59.7686 63.2814 59.7183 63.2739 59.6698 63.2606C59.6038 63.2414 59.5423 63.2098 59.4886 63.1673C59.4349 63.1239 59.3902 63.0714 59.3569 63.0114C59.3236 62.9514 59.3025 62.8856 59.2948 62.8173C59.287 62.7489 59.2928 62.6798 59.3117 62.6139L61.7234 54.2313C61.7616 54.0981 61.8511 53.9855 61.9723 53.9183C62.0935 53.8512 62.2364 53.8349 62.3696 53.8731C62.5028 53.9113 62.6154 54.0008 62.6825 54.122C62.7497 54.2433 62.7659 54.3861 62.7278 54.5193L60.3205 62.9023C60.2894 63.0114 60.2237 63.1073 60.1332 63.1756C60.0428 63.2439 59.9325 63.2806 59.8191 63.2814Z" fill="#660B2C"/>
<path d="M21.5778 134.805C19.3392 137.5 16.0052 144.546 18.4438 152.849C19.2392 155.552 21.6405 157.824 24.4268 158.231C27.213 158.639 30.3232 156.589 30.4665 153.774C30.571 151.726 29.2293 149.864 29.0442 147.82C28.8502 145.699 29.9113 143.684 31.0052 141.85C32.0991 140.016 33.217 138.129 33.4155 136.008C33.6259 133.769 30.9335 129.04 24.6103 132.307C23.4423 132.928 22.411 133.778 21.5778 134.805Z" fill="#F24182"/>
<path d="M25.1594 158.807C24.8937 158.806 24.6284 158.788 24.3654 158.749C21.4627 158.326 18.8272 155.96 17.9557 152.998C16.8627 149.284 16.7952 145.343 17.7602 141.594C18.4601 138.877 19.7361 136.214 21.1747 134.473C22.0576 133.393 23.1475 132.502 24.3803 131.851C27.9621 129.998 30.2992 130.673 31.6229 131.568C33.3197 132.712 34.0779 134.701 33.9496 136.065C33.7362 138.337 32.5303 140.35 31.4662 142.128C30.4559 143.813 29.3948 145.778 29.5768 147.773C29.6545 148.619 29.947 149.438 30.2574 150.31C30.6543 151.42 31.0647 152.568 31.0036 153.807C30.9349 155.159 30.2574 156.429 29.0933 157.388C27.9825 158.297 26.5942 158.797 25.1594 158.807ZM21.9732 135.144C19.8838 137.673 16.5617 144.598 18.9511 152.71C19.7107 155.293 21.997 157.354 24.5087 157.722C25.2042 157.808 25.9102 157.753 26.5831 157.556C27.2559 157.359 27.8812 157.026 28.4202 156.578C29.353 155.813 29.8962 154.81 29.95 153.754C30.0022 152.725 29.6515 151.723 29.2664 150.664C28.9471 149.768 28.6187 148.852 28.5292 147.874C28.3187 145.564 29.4679 143.423 30.5618 141.596C31.5692 139.914 32.7109 138.014 32.9019 135.974C32.9855 135.086 32.4542 133.403 31.0304 132.438C29.4694 131.385 27.3338 131.504 24.8534 132.785C23.7455 133.372 22.7662 134.173 21.9732 135.144ZM21.3105 168.416C21.2404 171.216 22.0432 173.973 23.1641 176.539C24.3252 179.197 25.8982 181.771 28.2382 183.478C30.5782 185.186 33.8212 185.878 36.4463 184.652C39.0714 183.425 40.6444 179.993 39.3341 177.406C37.8597 174.493 33.7794 173.772 32.1035 170.969C31.1722 169.411 30.9827 167.503 31.0215 165.688C31.1483 159.515 24.4624 158.673 21.9806 164.708C21.509 165.876 21.3418 167.156 21.3105 168.416Z" fill="#F24182"/>
<path d="M33.5427 185.792C31.5218 185.765 29.5605 185.104 27.9358 183.901C25.8465 182.375 24.1212 180.035 22.6855 176.748C21.3424 173.68 20.7245 170.951 20.7887 168.405C20.8275 166.866 21.0619 165.591 21.5065 164.511C22.999 160.893 25.8046 159.721 27.9239 160.163C30.1863 160.635 31.6085 162.808 31.5489 165.699C31.5026 167.885 31.8235 169.475 32.5562 170.701C33.3024 171.951 34.5859 172.762 35.9425 173.619C37.4349 174.563 38.9795 175.54 39.8048 177.171C40.4345 178.412 40.5032 179.901 40.0003 181.358C39.4335 183.005 38.2366 184.36 36.6722 185.125C35.6901 185.573 34.622 185.801 33.5427 185.792ZM27.0493 161.112C25.457 161.112 23.575 162.225 22.4736 164.901C22.0781 165.863 21.8767 167.015 21.8334 168.424C21.7722 170.811 22.3647 173.4 23.6422 176.325C25.0032 179.436 26.6075 181.636 28.5506 183.051C30.9385 184.794 33.9605 185.234 36.2335 184.171C37.5432 183.529 38.5443 182.392 39.0168 181.012C39.4272 179.818 39.378 178.624 38.878 177.636C38.1825 176.261 36.826 175.398 35.3888 174.502C33.9889 173.617 32.5398 172.701 31.6653 171.237C30.8265 169.836 30.458 168.069 30.5086 165.676C30.5594 163.284 29.4879 161.561 27.7164 161.186C27.497 161.139 27.2735 161.115 27.0493 161.112Z" fill="#F24182"/>
<path d="M106.823 94.4795C106.688 94.4786 106.558 94.4261 106.462 94.3328C106.364 94.2386 106.308 94.1111 106.303 93.9761L105.489 73.4586C105.431 72.0036 105.323 70.7245 104.593 69.8111C104.088 69.1845 103.336 68.8011 102.538 68.3936C102.093 68.177 101.66 67.9361 101.242 67.6728C99.5468 66.5628 98.4868 64.7228 98.4776 62.8736C98.4676 60.8303 99.8543 58.902 101.702 58.387C101.963 58.3196 102.226 58.2654 102.493 58.2246C102.919 58.1515 103.321 58.0828 103.638 57.8978C103.701 57.8127 104.134 57.0844 104.123 53.0355C104.123 50.5776 103.948 48.1107 103.787 47.1585C103.773 47.0897 103.773 47.0188 103.786 46.95C103.8 46.8811 103.828 46.8158 103.868 46.758C103.908 46.7 103.958 46.6508 104.018 46.613C104.077 46.5753 104.143 46.5499 104.213 46.5384C104.282 46.5268 104.353 46.5294 104.421 46.5459C104.489 46.5623 104.553 46.5924 104.609 46.6343C104.666 46.6761 104.713 46.729 104.748 46.7895C104.784 46.8501 104.807 46.9173 104.816 46.9869C104.993 48.0315 105.171 50.6582 105.168 53.24C105.168 58.1948 104.513 58.5886 104.201 58.7786C103.712 59.077 103.18 59.1661 102.668 59.2545C102.437 59.2895 102.208 59.3361 101.981 59.3945C100.572 59.787 99.5151 61.2795 99.5226 62.8678C99.5226 64.372 100.408 65.8778 101.813 66.7986C102.199 67.0411 102.598 67.2636 103.008 67.4636C103.867 67.9011 104.757 68.3595 105.395 69.1545C106.408 70.4128 106.478 72.1503 106.528 73.4186L107.341 93.9361C107.344 94.0045 107.333 94.0728 107.309 94.137C107.286 94.202 107.249 94.2603 107.203 94.3111C107.157 94.3611 107.1 94.402 107.038 94.4303C106.976 94.4595 106.908 94.4753 106.84 94.4778L106.823 94.4795ZM132.453 95.1586C132.317 95.1586 132.186 95.1045 132.088 95.0086C131.99 94.9136 131.934 94.7828 131.932 94.6461C131.842 90.2486 131.73 84.7745 132.333 74.8128C132.341 74.6736 132.404 74.5445 132.508 74.4528C132.612 74.3603 132.748 74.3136 132.887 74.322C133.025 74.3295 133.154 74.3928 133.247 74.497C133.338 74.6003 133.386 74.737 133.378 74.8753C132.781 84.7953 132.888 90.247 132.978 94.6253C132.979 94.6945 132.967 94.762 132.942 94.8261C132.917 94.8903 132.879 94.9486 132.832 94.9978C132.784 95.0478 132.728 95.087 132.665 95.1145C132.602 95.142 132.534 95.157 132.466 95.1586H132.453Z" fill="#660B2C"/>
<path d="M104.965 65.5662C103.637 65.5578 102.084 64.2887 101.769 62.9545C101.737 62.8195 101.76 62.6778 101.833 62.5595C101.906 62.442 102.023 62.3578 102.158 62.3262C102.293 62.2937 102.435 62.317 102.553 62.3895C102.67 62.4628 102.755 62.5795 102.787 62.7145C103.005 63.6395 104.203 64.517 104.973 64.522C105.112 64.522 105.245 64.577 105.343 64.6745C105.44 64.7728 105.495 64.9053 105.495 65.0445C105.495 65.1828 105.44 65.3153 105.343 65.4137C105.245 65.5112 105.112 65.5662 104.973 65.5662H104.965ZM124.44 62.5728C124.301 62.5778 124.166 62.5278 124.065 62.4337C123.963 62.3395 123.903 62.2095 123.897 62.0703C123.892 61.932 123.942 61.797 124.036 61.6953C124.13 61.5937 124.261 61.5337 124.4 61.5278C125.068 61.4762 125.955 61.282 126.387 60.652C126.48 60.5037 126.535 60.3353 126.551 60.1612C126.567 59.9878 126.543 59.812 126.48 59.6495C126.45 59.5537 126.397 59.467 126.326 59.397C126.255 59.327 126.167 59.2753 126.071 59.2478C125.936 59.2253 125.799 59.2178 125.662 59.2253C125.347 59.2253 124.955 59.2253 124.595 59.0003C123.922 58.5645 123.93 57.6732 123.932 57.2927L123.977 51.7932C123.978 51.7247 123.992 51.6568 124.019 51.5937C124.045 51.5306 124.085 51.4733 124.134 51.4252C124.182 51.3772 124.24 51.3392 124.304 51.3134C124.367 51.2877 124.435 51.2748 124.504 51.2754C124.573 51.276 124.64 51.2901 124.704 51.3168C124.767 51.3437 124.824 51.3827 124.872 51.4316C124.92 51.4805 124.958 51.5384 124.984 51.602C125.01 51.6656 125.023 51.7336 125.022 51.8022L124.977 57.3017C124.977 57.4747 124.977 57.9986 125.162 58.1225C125.319 58.1797 125.487 58.1996 125.653 58.1807C125.87 58.1717 126.089 58.1878 126.302 58.2284C126.565 58.294 126.809 58.4237 127.009 58.6062C127.21 58.7887 127.362 59.0178 127.453 59.2728C127.579 59.5953 127.625 59.9428 127.59 60.2862C127.555 60.6303 127.437 60.9612 127.249 61.2503C126.722 62.0178 125.765 62.4762 124.482 62.5762L124.44 62.5728Z" fill="#660B2C"/>
<path d="M116.17 59.269C116.04 59.2698 115.915 59.2223 115.818 59.1357C115.721 59.049 115.66 58.9298 115.646 58.8007C115.633 58.6715 115.668 58.5423 115.745 58.4373C115.822 58.3328 115.935 58.2606 116.062 58.2348L118.865 57.6468C118.933 57.6308 119.003 57.6285 119.072 57.6401C119.14 57.6518 119.206 57.677 119.265 57.7145C119.324 57.7519 119.375 57.8008 119.415 57.8581C119.454 57.9154 119.482 57.9802 119.496 58.0484C119.51 58.1167 119.511 58.1871 119.497 58.2555C119.484 58.3239 119.457 58.389 119.418 58.4465C119.38 58.5048 119.329 58.554 119.27 58.5923C119.212 58.6307 119.147 58.6565 119.079 58.669L116.277 59.2573C116.242 59.2648 116.206 59.269 116.17 59.269Z" fill="#F24182"/>
<path d="M124.418 77.3373C122.516 77.339 120.625 77.0698 118.8 76.5373C118.734 76.5181 118.673 76.4856 118.619 76.4423C118.566 76.399 118.522 76.3456 118.489 76.2848C118.457 76.2248 118.437 76.159 118.429 76.0906C118.423 76.0223 118.429 75.9531 118.449 75.8873C118.468 75.8215 118.5 75.7606 118.544 75.7073C118.587 75.654 118.64 75.6098 118.701 75.5773C118.761 75.5448 118.827 75.524 118.895 75.5173C118.964 75.5098 119.033 75.5165 119.099 75.5356C122.706 76.5831 126.542 76.5431 130.127 75.4215C131.897 74.8615 133.274 74.1298 134.336 73.1823C135.806 71.8748 136.925 69.899 137.662 67.3023C139.304 61.524 138.873 47.4537 138.616 45.1823C138.6 45.0437 138.64 44.9047 138.727 44.7956C138.814 44.6866 138.941 44.6166 139.079 44.601C139.218 44.5854 139.357 44.6254 139.466 44.7123C139.575 44.7992 139.645 44.9259 139.66 45.0644C139.959 47.6671 140.358 61.6556 138.673 67.5873C137.869 70.3756 136.641 72.5256 135.025 73.9673C133.851 75.0123 132.349 75.8123 130.438 76.4181C128.489 77.0298 126.459 77.3398 124.418 77.3373Z" fill="#660B2C"/>
<path d="M138.331 68.5166C138.202 68.5157 138.078 68.4682 137.983 68.3816C137.887 68.2957 137.827 68.1774 137.813 68.0491C137.8 67.9207 137.834 67.7924 137.909 67.6882C137.985 67.5841 138.096 67.5116 138.222 67.4841C139.507 67.2074 142.379 65.1691 141.866 61.7607C141.651 60.3324 140.224 59.7007 139.478 59.7474C139.34 59.7566 139.203 59.7099 139.099 59.6182C138.995 59.5266 138.932 59.3974 138.923 59.2582C138.913 59.1199 138.96 58.9832 139.052 58.8791C139.143 58.7749 139.273 58.7116 139.411 58.7024C140.678 58.6207 142.594 59.5849 142.898 61.6024C143.503 65.6199 140.238 68.1149 138.439 68.5016C138.404 68.5099 138.368 68.5149 138.331 68.5166ZM117.874 52.0011L117.855 52.001C117.723 52.0001 117.614 52.107 117.613 52.2397L117.598 54.6931C117.597 54.8258 117.703 54.9341 117.836 54.9349L117.855 54.9351C117.988 54.9359 118.097 54.829 118.098 54.6963L118.113 52.2429C118.114 52.1102 118.007 52.0019 117.874 52.0011Z" fill="#660B2C"/>
<path d="M117.855 55.8343H117.827C117.526 55.832 117.239 55.7102 117.027 55.4959C116.816 55.2816 116.699 54.9922 116.7 54.6912L116.717 52.2377C116.718 52.0886 116.748 51.9412 116.805 51.8037C116.863 51.6663 116.948 51.5416 117.054 51.4369C117.159 51.3321 117.285 51.2492 117.424 51.1931C117.561 51.1368 117.709 51.1084 117.859 51.1094H117.879C118.18 51.1118 118.468 51.2335 118.679 51.4478C118.89 51.6622 119.008 51.9517 119.006 52.2526L118.991 54.7061C118.989 55.0059 118.868 55.2926 118.655 55.5039C118.443 55.7152 118.155 55.834 117.855 55.8343Z" fill="#660B2C"/>
<path d="M132.463 59.3746C132.424 59.3746 132.385 59.3704 132.348 59.3612L129.547 58.7346C129.478 58.7212 129.413 58.6946 129.354 58.6554C129.297 58.6171 129.247 58.5662 129.208 58.5079C129.17 58.4496 129.144 58.3846 129.132 58.3156C129.119 58.2468 129.12 58.1762 129.135 58.1081C129.151 58.0399 129.179 57.9754 129.22 57.9186C129.26 57.8617 129.312 57.8134 129.371 57.7768C129.431 57.7402 129.497 57.7158 129.566 57.7052C129.635 57.6947 129.706 57.6981 129.773 57.7152L132.567 58.3387C132.693 58.3662 132.804 58.4396 132.88 58.5437C132.955 58.6487 132.989 58.7771 132.975 58.9054C132.962 59.0337 132.901 59.1521 132.804 59.2387C132.708 59.3246 132.584 59.3721 132.455 59.3721L132.463 59.3746Z" fill="#F24182"/>
<path d="M130.817 55.0278L130.836 55.0278C130.969 55.0287 131.077 54.9218 131.078 54.7891L131.094 52.3357C131.095 52.203 130.988 52.0948 130.856 52.0938L130.836 52.0938C130.703 52.0928 130.596 52.1998 130.595 52.3324L130.578 54.7859C130.577 54.9186 130.685 55.0268 130.817 55.0278Z" fill="#660B2C"/>
<path d="M130.841 55.9193H130.821C130.52 55.9165 130.232 55.7947 130.021 55.5804C129.81 55.3662 129.692 55.0769 129.694 54.7761L129.711 52.3211C129.711 52.1722 129.741 52.0249 129.8 51.8877C129.857 51.7504 129.941 51.6259 130.048 51.5213C130.154 51.4167 130.28 51.3339 130.417 51.2779C130.556 51.2218 130.703 51.1934 130.852 51.1944H130.873C131.022 51.1954 131.169 51.2257 131.306 51.2835C131.444 51.3414 131.568 51.4259 131.673 51.5319C131.777 51.6379 131.86 51.7634 131.916 51.9014C131.972 52.0394 132.001 52.1871 132 52.336L131.983 54.791C131.981 55.092 131.86 55.3799 131.646 55.5914C131.431 55.8029 131.142 55.9209 130.841 55.9193ZM132.74 75.3499L132.358 79.0307C132.358 79.0307 126.05 78.6382 120.391 76.399C120.391 76.399 126.709 78.5607 132.74 75.3499Z" fill="#660B2C"/>
<path d="M132.358 79.5526H132.325C132.064 79.5368 125.869 79.131 120.198 76.8859C120.074 76.8335 119.976 76.7359 119.923 76.6126C119.869 76.4893 119.865 76.3501 119.912 76.2243C119.958 76.0984 120.052 75.9951 120.172 75.9359C120.293 75.8768 120.431 75.8668 120.559 75.9068C120.621 75.9268 126.745 77.9518 132.498 74.8909C132.583 74.8468 132.677 74.8259 132.771 74.8309C132.866 74.8359 132.957 74.8668 133.036 74.9193C133.114 74.9726 133.177 75.0459 133.217 75.1318C133.257 75.2176 133.273 75.3126 133.263 75.4068L132.881 79.086C132.867 79.2143 132.805 79.3335 132.709 79.4193C132.613 79.506 132.488 79.5534 132.358 79.5526ZM126.362 77.6126C128.184 78.0034 130.028 78.2876 131.883 78.4651L132.115 76.2268C130.3 77.0418 128.349 77.5135 126.362 77.616V77.6126ZM113.472 49.4306C113.333 49.4397 113.197 49.3934 113.093 49.3019C112.988 49.2104 112.924 49.0811 112.915 48.9426C112.906 48.8041 112.953 48.6676 113.044 48.5632C113.136 48.4588 113.265 48.395 113.403 48.386C114.923 48.1848 116.365 47.5878 117.582 46.6548C117.636 46.6104 117.698 46.5774 117.766 46.5576C117.833 46.5379 117.903 46.5319 117.973 46.5399C118.043 46.5479 118.11 46.5698 118.171 46.6043C118.232 46.6388 118.285 46.6852 118.328 46.7407C118.37 46.7963 118.401 46.8598 118.418 46.9275C118.436 46.9953 118.44 47.0659 118.43 47.1351C118.419 47.2044 118.396 47.2709 118.359 47.3306C118.323 47.3904 118.274 47.4422 118.218 47.483C116.858 48.5263 115.248 49.1951 113.548 49.4232L113.472 49.4306ZM134.442 48.9098C134.423 48.9112 134.403 48.9112 134.383 48.9098C132.902 48.7335 131.533 48.0331 130.523 46.9353C130.473 46.8854 130.433 46.826 130.407 46.7605C130.381 46.695 130.368 46.6249 130.37 46.5544C130.372 46.4839 130.388 46.4144 130.417 46.3501C130.446 46.286 130.488 46.2283 130.539 46.1806C130.592 46.133 130.653 46.0964 130.719 46.0731C130.786 46.0498 130.857 46.0402 130.927 46.0449C130.997 46.0495 131.066 46.0684 131.128 46.1004C131.192 46.1324 131.248 46.1768 131.293 46.231C132.134 47.1436 133.274 47.7257 134.508 47.8725C134.646 47.8803 134.776 47.9427 134.868 48.0461C134.961 48.1495 135.008 48.2854 135 48.4239C134.993 48.5625 134.93 48.6923 134.827 48.7848C134.723 48.8773 134.588 48.9249 134.449 48.9172L134.442 48.9098ZM124.403 68.4343C122.874 68.4476 121.373 68.0234 120.076 67.2143C120.016 67.1784 119.963 67.1309 119.922 67.0743C119.88 67.0184 119.85 66.9543 119.834 66.8859C119.818 66.8176 119.815 66.7468 119.827 66.6776C119.838 66.6084 119.864 66.5426 119.902 66.4835C119.939 66.4251 119.988 66.3734 120.046 66.3343C120.103 66.2943 120.168 66.2668 120.238 66.2526C120.306 66.2385 120.377 66.2385 120.445 66.2526C120.514 66.266 120.579 66.2934 120.637 66.3334C123.259 68.0018 126.963 67.6768 129.253 65.5726C129.355 65.4793 129.489 65.4309 129.628 65.4376C129.765 65.4443 129.895 65.5043 129.988 65.6059C130.082 65.7085 130.131 65.8426 130.125 65.9801C130.119 66.1185 130.059 66.2484 129.958 66.3426C128.462 67.7168 126.429 68.4343 124.403 68.4343ZM115.513 66.1676C115.403 66.1668 115.295 66.1318 115.206 66.066C115.117 66.0001 115.051 65.9076 115.018 65.8018C114.985 65.6968 114.986 65.5834 115.021 65.4784C115.057 65.3734 115.124 65.2826 115.215 65.2184L116.664 64.201C116.72 64.1551 116.784 64.1218 116.853 64.1018C116.923 64.0826 116.995 64.0776 117.067 64.0876C117.138 64.0976 117.206 64.1218 117.268 64.1593C117.329 64.1968 117.382 64.2468 117.423 64.306C117.464 64.3643 117.493 64.431 117.508 64.5018C117.522 64.5726 117.521 64.6451 117.506 64.7151C117.49 64.7859 117.461 64.8518 117.418 64.9101C117.377 64.9685 117.323 65.0176 117.261 65.0543L115.812 66.0734C115.724 66.1351 115.62 66.1684 115.513 66.1676ZM133.4 65.1859C133.273 65.1859 133.151 65.1401 133.055 65.0576L132.01 64.1459C131.959 64.1001 131.917 64.0451 131.887 63.9835C131.856 63.9218 131.838 63.8551 131.834 63.786C131.83 63.7176 131.839 63.6493 131.861 63.5843C131.883 63.5193 131.918 63.4593 131.963 63.4076C132.008 63.3559 132.064 63.3143 132.126 63.2835C132.187 63.2535 132.254 63.236 132.323 63.2309C132.391 63.2268 132.46 63.2359 132.525 63.2584C132.59 63.2801 132.65 63.3151 132.702 63.3609L133.746 64.2726C133.826 64.3426 133.883 64.4351 133.908 64.5376C133.934 64.6409 133.928 64.7493 133.89 64.8485C133.853 64.9476 133.787 65.0334 133.699 65.0943C133.613 65.1543 133.509 65.1868 133.403 65.1876L133.4 65.1859ZM121.546 41.4821C121.408 41.4904 121.271 41.4434 121.168 41.3513C121.063 41.2592 121 41.1297 120.992 40.9911C120.983 40.8526 121.031 40.7164 121.123 40.6126C121.215 40.5088 121.344 40.4458 121.483 40.4374L123.573 40.1778C123.641 40.1693 123.71 40.1742 123.776 40.1924C123.842 40.2106 123.904 40.2416 123.958 40.2838C124.013 40.3259 124.058 40.3783 124.092 40.438C124.126 40.4976 124.148 40.5634 124.156 40.6314C124.164 40.6996 124.159 40.7687 124.142 40.8349C124.123 40.901 124.092 40.963 124.05 41.0172C124.008 41.0714 123.955 41.1167 123.896 41.1507C123.836 41.1846 123.77 41.2064 123.703 41.215L121.613 41.4747C121.591 41.4788 121.568 41.4813 121.546 41.4821ZM127.147 40.9613C127.008 40.9646 126.874 40.9129 126.773 40.8173C126.673 40.7217 126.615 40.5902 126.612 40.4516C126.608 40.3131 126.66 40.179 126.756 40.0786C126.851 39.9782 126.983 39.9199 127.122 39.9166L129.727 39.7868C129.796 39.7834 129.864 39.7934 129.929 39.8165C129.993 39.8396 130.053 39.8752 130.104 39.9213C130.155 39.9674 130.197 40.023 130.226 40.0851C130.255 40.1472 130.272 40.2144 130.276 40.283C130.279 40.3516 130.269 40.4202 130.246 40.4849C130.223 40.5495 130.187 40.609 130.141 40.66C130.095 40.7109 130.039 40.7523 129.978 40.7817C129.915 40.8111 129.848 40.828 129.779 40.8314L127.173 40.9613H127.147ZM106.012 73.4401C105.956 72.0535 105.512 70.1284 104.642 69.0484C103.772 67.9676 102.33 67.5559 101.168 66.8018C99.7035 65.8409 98.6493 64.1876 98.6418 62.4368C98.6343 60.6859 99.7943 58.9268 101.478 58.4568C102.176 58.2626 102.948 58.273 103.567 57.897C104.631 57.2508 104.413 50.72 104.416 49.5709C104.416 49.5709 100.536 44.0909 95.3709 43.6595C92.2859 43.4014 88.1418 45.4877 88.5776 49.6395C88.716 50.9574 89.2535 49.7769 88.3026 50.7574C87.6176 51.4633 86.4534 51.4469 85.4343 51.4528C80.9827 51.4797 76.3801 53.1198 73.7058 56.4508C71.0315 59.7818 70.7941 64.8934 73.7894 67.9768C75.6787 69.9168 78.5441 70.851 81.3498 70.961C84.1551 71.0718 86.9451 70.4601 89.6309 69.7151C88.2026 72.2834 89.4026 76.6084 91.4218 77.6668C98.071 81.1393 106.012 73.4401 106.012 73.4401Z" fill="#660B2C"/>
<path d="M95.1659 79.0823C93.7826 79.0948 92.4159 78.7698 91.1859 78.1348C90.1709 77.604 89.3159 76.3915 88.8434 74.8082C88.3951 73.3157 88.3701 71.7732 88.7476 70.4982C86.3984 71.109 83.9018 71.5965 81.3333 71.4907C78.1188 71.3598 75.234 70.2132 73.4237 68.3448C70.3763 65.2107 70.324 59.8382 73.3072 56.1282C75.8951 52.9061 80.4305 50.966 85.4401 50.9347H85.5326C86.4626 50.9347 87.4251 50.9242 87.9359 50.3974C88.0076 50.3242 88.0851 50.2482 88.1534 50.184C88.1101 50.0248 88.0809 49.862 88.0668 49.6975C87.9659 48.8878 88.0501 48.0657 88.3143 47.2937C88.5776 46.5215 89.0134 45.8196 89.5892 45.2412C91.0101 43.7891 93.3009 42.9652 95.4234 43.1429C100.773 43.5906 104.686 49.0423 104.85 49.2736C104.913 49.3608 104.947 49.465 104.948 49.5721C104.948 49.6974 104.948 49.8885 104.948 50.1302C105.016 55.5148 104.707 57.8176 103.843 58.3382C103.352 58.6365 102.823 58.7282 102.31 58.8148C102.067 58.8565 101.838 58.8948 101.623 58.9548C100.213 59.3473 99.1551 60.8415 99.1642 62.429C99.1642 63.9332 100.049 65.439 101.455 66.3598C101.841 66.6032 102.239 66.8248 102.649 67.024C103.508 67.4632 104.398 67.9198 105.037 68.7165C105.98 69.8865 106.463 71.919 106.529 73.4148C106.533 73.4882 106.52 73.5607 106.493 73.629C106.465 73.6973 106.424 73.759 106.371 73.8098C104.886 75.1832 103.231 76.3598 101.446 77.3123C99.2376 78.4915 97.1151 79.0823 95.1659 79.0823ZM89.6309 69.1923C89.7226 69.1923 89.8117 69.2157 89.8909 69.2607C89.9701 69.3057 90.0368 69.3707 90.0826 69.449C90.1284 69.5282 90.1534 69.6173 90.1542 69.7082C90.1551 69.799 90.1326 69.889 90.0876 69.969C89.4459 71.124 89.3501 72.8623 89.8426 74.504C90.2292 75.799 90.9134 76.8082 91.6684 77.204C97.3859 80.1882 104.304 74.2848 105.474 73.2232C105.385 71.9623 104.974 70.2957 104.233 69.3765C103.728 68.749 102.974 68.3657 102.178 67.9598C101.733 67.7423 101.3 67.5015 100.881 67.2373C99.1851 66.1273 98.1276 64.2882 98.1184 62.4382C98.1076 60.3948 99.4926 58.4665 101.34 57.9533C101.602 57.8852 101.866 57.8305 102.133 57.7892C102.567 57.7146 102.979 57.6399 103.298 57.4504C103.331 57.4206 103.695 57.037 103.846 54.4015C103.936 52.824 103.913 51.0794 103.901 50.1437C103.901 49.9885 103.901 49.8557 103.901 49.7452C103.287 48.9333 99.7659 44.5487 95.3334 44.1786C93.5426 44.0293 91.5276 44.7487 90.3343 45.9695C89.8684 46.4394 89.5151 47.0092 89.3018 47.6357C89.0893 48.2622 89.0218 48.929 89.1043 49.5855C89.1134 49.6862 89.1309 49.7861 89.1568 49.884C89.2376 49.9403 89.3017 50.0186 89.3409 50.1097C89.3801 50.2007 89.3918 50.301 89.3768 50.3988C89.3609 50.4967 89.3176 50.5882 89.2526 50.6626C89.1876 50.7371 89.1026 50.7916 89.0076 50.8197C88.8909 50.9093 88.7826 51.0092 88.6834 51.1182C87.8659 51.9599 86.5743 51.9659 85.5359 51.9718H85.4434C80.7453 52.0002 76.5114 53.7956 74.1192 56.7743C71.4598 60.0848 71.4821 64.844 74.1699 67.609C75.8011 69.2882 78.4277 70.319 81.3767 70.4448C84.1809 70.5598 86.9359 69.9207 89.4951 69.2123C89.5392 69.1998 89.5851 69.1932 89.6309 69.1923ZM164.976 57.2057C164.827 53.2956 160.87 49.8572 156.648 49.9646C155.271 50.0004 153.913 50.3601 152.537 50.3063C151.161 50.2527 149.657 49.6332 149.243 48.4155C148.838 47.2216 149.84 45.871 149.406 44.6965C147.531 39.6567 139.407 46.6515 139.407 46.6515C139.369 46.7664 139.446 59.2265 139.446 59.2265C140.431 59.164 142.123 59.9532 142.383 61.6832C142.926 65.2898 139.658 67.6373 137.997 67.994C137.997 67.994 137.133 71.7832 134.678 73.5757C134.151 73.9607 133.657 74.3832 133.093 74.7098C138.333 73.6173 140.947 78.5365 146.815 78.5665C159.162 78.6323 157.02 68.3357 154.838 69.0298C157.271 67.6465 159.734 66.2373 161.694 64.3123C163.653 62.3873 165.078 59.8498 164.976 57.2057Z" fill="#660B2C"/>
<path d="M146.93 79.089H146.812C143.911 79.074 141.738 77.8948 139.813 76.8607C137.648 75.6932 135.783 74.6832 133.2 75.219C133.078 75.244 132.953 75.2248 132.844 75.1648C132.735 75.1057 132.652 75.0098 132.607 74.894C132.563 74.7782 132.561 74.6507 132.602 74.534C132.643 74.4173 132.724 74.319 132.831 74.2565C133.203 74.0307 133.559 73.7815 133.898 73.5098C134.048 73.3907 134.21 73.2715 134.37 73.1565C136.634 71.5032 137.478 67.9148 137.488 67.879C137.509 67.7823 137.558 67.6932 137.63 67.6232C137.701 67.554 137.79 67.5057 137.888 67.4857C139.267 67.1865 142.364 65.1215 141.866 61.7623C141.651 60.334 140.224 59.704 139.478 59.749C139.408 59.7532 139.336 59.7432 139.269 59.719C139.203 59.6948 139.141 59.6582 139.088 59.6098C139.037 59.5607 138.995 59.5023 138.966 59.4373C138.938 59.3723 138.923 59.3023 138.922 59.2307C138.846 46.6947 138.874 46.5977 138.907 46.4947C138.934 46.4036 138.986 46.3215 139.056 46.2575C139.277 46.068 144.494 41.6177 147.761 42.4593C148.759 42.7161 149.474 43.4085 149.886 44.5159C150.163 45.2621 149.986 46.0082 149.833 46.6873C149.701 47.2589 149.576 47.7992 149.729 48.2483C150.067 49.2437 151.427 49.7407 152.548 49.787C153.288 49.7928 154.028 49.7374 154.759 49.6213C155.383 49.5288 156.01 49.4691 156.639 49.4422C158.781 49.39 160.983 50.2048 162.685 51.6808C164.387 53.1568 165.425 55.176 165.503 57.1832C165.603 59.7423 164.382 62.4065 162.07 64.6823C160.315 66.4065 158.19 67.7123 156.069 68.9315C156.099 68.9615 156.128 68.9907 156.156 69.0223C157.072 70.054 157.447 72.389 156.486 74.5157C155.701 76.2307 153.433 79.089 146.93 79.089ZM134.937 74.034C136.94 74.1232 138.588 75.0132 140.309 75.9415C142.213 76.9682 144.179 78.0307 146.819 78.044H146.928C151.32 78.044 154.371 76.6423 155.524 74.089C156.344 72.2757 155.958 70.3865 155.366 69.719C155.268 69.6107 155.124 69.4882 154.998 69.5282C154.877 69.5615 154.748 69.5498 154.636 69.4965C154.523 69.4423 154.433 69.3498 154.383 69.2357C154.332 69.1215 154.324 68.9923 154.36 68.8732C154.397 68.7532 154.474 68.6507 154.58 68.584C156.951 67.2407 159.405 65.8373 161.327 63.9482C162.546 62.754 164.573 60.2848 164.461 57.2325C164.312 53.6045 160.604 50.3929 156.668 50.4929C156.078 50.5185 155.492 50.5747 154.908 50.6616C154.118 50.7861 153.32 50.844 152.52 50.8347C151.114 50.7809 149.285 50.1601 148.752 48.5961C148.504 47.8648 148.674 47.1216 148.827 46.4649C148.959 45.8859 149.085 45.3382 148.919 44.892C148.63 44.1129 148.173 43.6517 147.513 43.4832C145.327 42.9205 141.456 45.6412 139.924 46.9157C139.911 48.1349 139.941 54.3045 139.968 58.7457C141.178 58.9232 142.641 59.8782 142.902 61.6198C143.443 65.214 140.466 67.8073 138.425 68.4357C138.154 69.4123 137.174 72.4148 134.985 74.0132L134.937 74.034ZM197.003 72.3532C196.877 72.3532 196.756 72.3082 196.661 72.2257C196.566 72.1432 196.504 72.0298 196.486 71.9057C195.768 66.8315 195.08 64.8598 195.073 64.8407C195.032 64.7115 195.042 64.5715 195.102 64.4498C195.162 64.3282 195.267 64.2348 195.395 64.189C195.523 64.1432 195.663 64.149 195.787 64.2057C195.91 64.2615 196.007 64.364 196.057 64.4898C196.086 64.5723 196.784 66.5615 197.52 71.7598C197.531 71.8282 197.528 71.8982 197.511 71.9657C197.493 72.0332 197.463 72.0965 197.422 72.1523C197.38 72.2073 197.328 72.254 197.268 72.289C197.208 72.3248 197.142 72.3473 197.073 72.3565C197.049 72.3565 197.026 72.3557 197.003 72.3532ZM211.656 62.0498C211.656 62.0498 218.136 61.0057 218.432 62.2798C218.545 62.7707 212.293 65.9273 212.293 65.9273C212.293 65.9273 212.32 63.7532 211.656 62.0498Z" fill="#660B2C"/>
<path d="M212.293 66.4501C212.196 66.4501 212.1 66.4226 212.018 66.3709C211.942 66.3234 211.878 66.2576 211.836 66.1793C211.793 66.1009 211.77 66.0126 211.771 65.9226C211.771 65.9017 211.788 63.8334 211.174 62.2426C211.146 62.1701 211.134 62.0918 211.14 62.0143C211.145 61.9368 211.168 61.8609 211.207 61.7934C211.246 61.7259 211.299 61.6676 211.363 61.6234C211.427 61.5784 211.5 61.5492 211.578 61.5367C211.644 61.5251 213.243 61.2701 214.905 61.1684C217.538 61.0059 218.745 61.3042 218.945 62.1634C219.049 62.6117 218.945 62.9401 215.662 64.7467C214.123 65.5934 212.55 66.3884 212.528 66.3959C212.455 66.4318 212.375 66.4501 212.293 66.4501ZM212.352 62.4742C212.589 63.3284 212.735 64.2051 212.788 65.0901C214.856 64.0242 216.938 62.8668 217.698 62.3126C216.932 62.0759 214.711 62.1384 212.352 62.4742ZM196.249 67.3901C196.249 67.3901 188.488 72.0684 189.806 72.7301C190.273 72.9626 197.004 71.8251 197.004 71.8251L196.249 67.3901Z" fill="#660B2C"/>
<path d="M190.099 73.2776C189.723 73.2776 189.63 73.2309 189.572 73.2018C189.445 73.1426 189.338 73.0493 189.26 72.9334C189.183 72.8168 189.139 72.6818 189.134 72.5418C189.114 72.0268 189.525 71.2551 192.639 69.1093C194.28 67.9734 195.963 66.9618 195.979 66.9509C196.052 66.9076 196.135 66.8826 196.22 66.8776C196.305 66.8734 196.389 66.8893 196.466 66.9243C196.544 66.9601 196.611 67.0134 196.663 67.0809C196.715 67.1484 196.75 67.2276 196.764 67.3109L197.52 71.7476C197.542 71.8843 197.51 72.0243 197.43 72.1376C197.39 72.1934 197.34 72.2409 197.281 72.2776C197.224 72.3134 197.159 72.3384 197.091 72.3493C192.569 73.1101 190.815 73.2776 190.099 73.2776ZM195.864 68.2434C193.505 69.7059 191.089 71.4134 190.374 72.2376C191.404 72.1734 193.965 71.8059 196.401 71.4034L195.864 68.2434ZM190.723 159.8C188.201 159.801 185.735 159.053 183.639 157.652C181.541 156.251 179.907 154.26 178.941 151.93C177.976 149.6 177.724 147.036 178.215 144.563C178.707 142.089 179.921 139.817 181.705 138.033C183.488 136.25 185.76 135.036 188.233 134.543C190.707 134.051 193.27 134.303 195.6 135.268C197.93 136.233 199.922 137.868 201.323 139.965C202.725 142.062 203.472 144.528 203.472 147.049C203.469 150.43 202.125 153.671 199.735 156.061C197.344 158.452 194.103 159.796 190.723 159.8ZM190.723 135.344C188.407 135.344 186.144 136.03 184.219 137.317C182.293 138.603 180.793 140.431 179.906 142.57C179.02 144.709 178.788 147.063 179.24 149.334C179.691 151.605 180.806 153.691 182.444 155.328C184.081 156.966 186.167 158.081 188.438 158.533C190.709 158.983 193.063 158.752 195.202 157.866C197.341 156.979 199.17 155.478 200.455 153.553C201.741 151.628 202.428 149.364 202.428 147.049C202.424 143.946 201.19 140.971 198.995 138.777C196.801 136.583 193.826 135.348 190.723 135.344Z" fill="#660B2C"/>
<path d="M191.315 154.226C190.817 154.226 190.329 154.078 189.914 153.802C189.5 153.524 189.177 153.131 188.986 152.67C188.795 152.209 188.746 151.702 188.843 151.213C188.94 150.725 189.18 150.276 189.533 149.923C189.885 149.571 190.334 149.331 190.824 149.233C191.313 149.136 191.819 149.186 192.279 149.377C192.74 149.567 193.134 149.891 193.411 150.305C193.688 150.719 193.836 151.207 193.836 151.705C193.835 152.373 193.569 153.014 193.097 153.487C192.624 153.959 191.984 154.225 191.315 154.226ZM191.315 150.229C191.024 150.229 190.738 150.316 190.495 150.478C190.253 150.64 190.064 150.871 189.952 151.141C189.84 151.41 189.81 151.707 189.868 151.993C189.924 152.28 190.065 152.542 190.272 152.749C190.478 152.956 190.741 153.096 191.027 153.153C191.314 153.21 191.61 153.181 191.88 153.069C192.149 152.957 192.38 152.768 192.543 152.526C192.704 152.282 192.791 151.997 192.791 151.705C192.79 151.314 192.634 150.939 192.358 150.662C192.081 150.386 191.706 150.23 191.315 150.229ZM52.1021 160.009C51.9636 160.009 51.8307 159.954 51.7328 159.856C51.6348 159.758 51.5798 159.625 51.5798 159.487C51.5798 159.348 51.6348 159.215 51.7328 159.117C51.8307 159.019 51.9636 158.964 52.1021 158.964C53.3289 158.964 55.6197 158.884 58.0463 158.799C61.4937 158.678 65.0606 158.552 66.4037 158.624C66.4723 158.627 66.5396 158.645 66.6015 158.674C66.6635 158.704 66.7191 158.746 66.765 158.797C66.8109 158.847 66.8464 158.907 66.8692 158.972C66.8921 159.037 66.9021 159.106 66.8985 159.174C66.8948 159.242 66.8777 159.31 66.8481 159.372C66.8186 159.434 66.777 159.489 66.726 159.535C66.6749 159.582 66.6152 159.617 66.5505 159.64C66.4857 159.662 66.4171 159.672 66.3485 159.669C65.0486 159.598 61.3475 159.728 58.0821 159.843C55.6481 159.927 53.3468 160.009 52.1021 160.009ZM56.7987 163.351C56.6601 163.354 56.526 163.302 56.4256 163.207C56.3253 163.111 56.2671 162.979 56.2636 162.841C56.2603 162.702 56.3121 162.568 56.4077 162.467C56.5033 162.367 56.6348 162.309 56.7733 162.306L62.0445 162.042C62.1131 162.038 62.1816 162.048 62.2463 162.072C62.311 162.095 62.3705 162.13 62.4215 162.177C62.4724 162.222 62.5137 162.278 62.5431 162.34C62.5726 162.402 62.5895 162.469 62.5929 162.538C62.5963 162.607 62.5862 162.675 62.5631 162.74C62.5401 162.804 62.5045 162.864 62.4584 162.915C62.4123 162.966 62.3566 163.007 62.2946 163.037C62.2326 163.066 62.1653 163.083 62.0966 163.087L56.8241 163.351H56.7987ZM59.8327 170.417C59.3342 170.417 58.8468 170.269 58.4323 169.992C58.0178 169.715 57.6947 169.322 57.504 168.861C57.3131 168.4 57.2632 167.893 57.3605 167.405C57.4578 166.916 57.6978 166.467 58.0504 166.114C58.4029 165.762 58.852 165.522 59.341 165.424C59.8299 165.327 60.3367 165.377 60.7973 165.567C61.2579 165.758 61.6516 166.082 61.9286 166.496C62.2056 166.911 62.3534 167.397 62.3534 167.897C62.3526 168.565 62.0867 169.205 61.6142 169.677C61.1416 170.151 60.501 170.416 59.8327 170.417ZM59.8327 166.42C59.5408 166.42 59.2555 166.507 59.0127 166.669C58.77 166.832 58.5808 167.062 58.4691 167.332C58.3574 167.602 58.3281 167.898 58.3851 168.184C58.4421 168.471 58.5826 168.733 58.7891 168.94C58.9955 169.147 59.2585 169.287 59.5448 169.344C59.8311 169.401 60.1279 169.372 60.3976 169.26C60.6672 169.148 60.8978 168.959 61.06 168.717C61.2221 168.473 61.3087 168.188 61.3087 167.897C61.3083 167.505 61.1526 167.13 60.876 166.853C60.5992 166.577 60.2241 166.421 59.8327 166.42ZM208.588 85.1975C208.481 85.1975 208.377 85.165 208.289 85.1033C208.201 85.0425 208.134 84.9558 208.097 84.855L198.288 58.2535C198.264 58.1891 198.253 58.1207 198.256 58.0521C198.259 57.9836 198.274 57.9162 198.304 57.854C198.332 57.7916 198.373 57.7356 198.424 57.6891C198.474 57.6426 198.533 57.6064 198.597 57.5826C198.662 57.559 198.73 57.5481 198.799 57.5509C198.867 57.5536 198.934 57.5698 198.997 57.5986C199.059 57.6273 199.115 57.6681 199.162 57.7185C199.209 57.7689 199.244 57.828 199.268 57.8923L209.078 84.4941C209.101 84.5583 209.113 84.6266 209.109 84.695C209.107 84.7641 209.091 84.8308 209.062 84.8933C209.034 84.9558 208.993 85.0116 208.943 85.0583C208.892 85.105 208.833 85.1408 208.769 85.1641C208.711 85.1858 208.649 85.1975 208.588 85.1975ZM162.725 111.75C162.686 111.75 162.647 111.745 162.609 111.737C162.542 111.721 162.479 111.693 162.423 111.653C162.367 111.613 162.319 111.563 162.283 111.505C162.246 111.447 162.221 111.382 162.209 111.315C162.198 111.247 162.2 111.177 162.215 111.111L175.419 52.8122C175.449 52.6771 175.532 52.5596 175.649 52.4857C175.767 52.4119 175.909 52.3876 176.044 52.4182C176.179 52.4489 176.296 52.5321 176.37 52.6493C176.444 52.7666 176.469 52.9084 176.438 53.0436L163.234 111.342C163.208 111.457 163.144 111.561 163.051 111.635C162.959 111.709 162.844 111.749 162.725 111.75ZM25.0108 106.902C24.986 106.905 24.961 106.905 24.9361 106.902C24.8673 106.893 24.8009 106.871 24.741 106.836C24.681 106.8 24.6286 106.753 24.5869 106.698C24.5452 106.642 24.5151 106.579 24.4981 106.512C24.4812 106.444 24.4779 106.374 24.4885 106.306C25.7704 97.5358 29.6461 85.2983 34.5934 78.865C37.5782 74.9925 40.5794 72.6941 43.7821 71.8358C47.622 70.8075 52.1395 71.9 55.572 74.6891C58.5403 77.0966 60.7819 80.6841 62.0549 85.0641C62.9071 87.9941 62.9697 90.3775 62.2459 92.3483C61.4788 94.4383 59.3731 96.3783 56.9912 96.3783C56.7411 96.3783 56.4915 96.3566 56.2451 96.3141C56.1774 96.3025 56.1127 96.2775 56.0547 96.2408C55.9967 96.2041 55.9466 96.1566 55.907 96.1C55.8271 95.9875 55.7954 95.8466 55.819 95.71C55.8425 95.5733 55.9193 95.4525 56.0326 95.3725C56.1457 95.2925 56.2861 95.2608 56.4226 95.2841C58.5627 95.6525 60.567 93.9008 61.2654 91.9916C61.9086 90.2366 61.8385 88.0666 61.052 85.3583C60.2058 82.4483 58.4552 78.375 54.9138 75.5083C51.7321 72.9283 47.5668 71.91 44.0447 72.8533C41.0734 73.6508 38.2498 75.8275 35.4142 79.5108C30.5834 85.79 26.7852 97.82 25.5331 106.455C25.5154 106.58 25.4526 106.695 25.3564 106.777C25.2603 106.859 25.1374 106.904 25.0108 106.902Z" fill="#660B2C"/>
<path d="M52.0606 98.2265C51.6791 98.2274 51.2996 98.1732 50.9338 98.0649C50.801 98.0257 50.6894 97.9349 50.6235 97.8132C50.5576 97.6915 50.5427 97.5482 50.5823 97.4149C50.6219 97.2824 50.7126 97.1707 50.8345 97.1049C50.9564 97.039 51.0995 97.024 51.2322 97.064C52.6097 97.479 54.2931 96.7999 55.2363 95.449C56.0706 94.2549 56.3855 92.5915 56.1228 90.7707C55.8841 89.0874 55.2095 87.4632 54.5603 85.8965C54.5072 85.7682 54.5072 85.624 54.5603 85.4965C54.6133 85.3682 54.7151 85.2665 54.8431 85.2132C54.9711 85.1607 55.115 85.1607 55.2431 85.2132C55.3711 85.2665 55.4728 85.3682 55.5259 85.4965C56.2034 87.1257 56.9033 88.8107 57.1675 90.6257C57.466 92.7149 57.0899 94.6357 56.1034 96.0507C55.1438 97.4115 53.5708 98.2265 52.0606 98.2265Z" fill="#660B2C"/>
<path d="M45.2534 100.87C44.9226 100.87 44.5921 100.849 44.2639 100.807C42.3626 100.568 40.6643 99.7148 39.3987 98.9982C38.069 98.2523 36.6349 97.2632 36.0752 95.6782C35.9143 95.1899 35.8655 94.6715 35.9324 94.1623C35.9994 93.6532 36.1803 93.1648 36.4617 92.7348C36.6611 92.4132 36.9343 92.1432 37.2586 91.9473C37.583 91.7515 37.9493 91.6357 38.3272 91.6098C38.3958 91.6057 38.4644 91.6157 38.5293 91.639C38.594 91.6615 38.6537 91.6965 38.7049 91.7424C38.7559 91.7882 38.7976 91.844 38.8273 91.9057C38.8569 91.9682 38.8742 92.0348 38.8779 92.104C38.8816 92.1723 38.8718 92.2407 38.8489 92.3057C38.8262 92.3707 38.7908 92.4299 38.7449 92.4815C38.6991 92.5324 38.6436 92.574 38.5816 92.604C38.5197 92.6332 38.4525 92.6507 38.3839 92.6548C38.1685 92.674 37.9608 92.744 37.7777 92.8598C37.5946 92.9748 37.4413 93.1315 37.3303 93.3174C37.1398 93.6124 37.0168 93.9457 36.9701 94.294C36.9234 94.6424 36.9542 94.9965 37.0602 95.3315C37.5079 96.5915 38.751 97.4332 39.9121 98.0898C41.0956 98.7598 42.6745 99.5565 44.3893 99.7732C46.0667 99.9832 47.6367 99.579 48.6978 98.6615C50.2349 97.3315 50.5439 95.1032 50.32 93.4607C50.0589 91.5349 49.1559 89.729 48.1739 87.8807C48.1089 87.7582 48.095 87.6149 48.1354 87.4824C48.1759 87.3499 48.2674 87.239 48.3896 87.174C48.5119 87.1082 48.6551 87.0948 48.7876 87.1348C48.9201 87.1757 49.0312 87.2674 49.0963 87.389C50.1245 89.319 51.0722 91.2232 51.3558 93.3198C51.687 95.7615 50.9304 98.1107 49.3814 99.4507C48.3188 100.372 46.8502 100.87 45.2534 100.87Z" fill="#660B2C"/>
<path d="M42.4968 95.808C42.3896 95.8063 42.2853 95.7721 42.1983 95.7088C39.562 93.818 37.4672 91.2688 36.1228 88.3155C36.0931 88.253 36.0761 88.1855 36.0728 88.1163C36.0696 88.0471 36.0802 87.978 36.1039 87.913C36.1277 87.8471 36.1642 87.788 36.2112 87.7371C36.2583 87.6863 36.3151 87.6446 36.3782 87.6163C36.4412 87.588 36.5094 87.5713 36.5787 87.5696C36.648 87.5671 36.717 87.5788 36.7817 87.6038C36.8464 87.6288 36.9056 87.6663 36.9557 87.7138C37.0057 87.7621 37.0458 87.8196 37.0735 87.883C38.3428 90.6688 40.319 93.0746 42.8057 94.8596C42.8956 94.9238 42.9628 95.0146 42.9978 95.1196C43.0329 95.2238 43.0339 95.3371 43.0007 95.4421C42.9677 95.5471 42.9021 95.6396 42.8134 95.7055C42.7247 95.7705 42.6176 95.8063 42.5072 95.808H42.4968ZM62.3963 88.7305C62.2662 88.7313 62.1405 88.6821 62.0442 88.5946C61.9478 88.5071 61.8878 88.3871 61.8756 88.2571C61.8634 88.1271 61.9002 87.998 61.9786 87.8938C62.0569 87.7896 62.1713 87.7188 62.2993 87.6946C62.8799 87.5846 63.2679 86.9088 63.3067 86.3171C63.3559 85.5921 63.0545 84.8563 62.7202 84.1696C61.2625 81.178 59.0883 78.5921 56.391 76.6421C56.3316 76.6038 56.2806 76.5538 56.2412 76.4946C56.2017 76.4363 56.1747 76.3696 56.1616 76.3005C56.1485 76.2305 56.1497 76.1596 56.1652 76.0905C56.1806 76.0213 56.2099 75.9555 56.2513 75.8988C56.2928 75.8413 56.3454 75.793 56.4061 75.7563C56.4668 75.7196 56.5343 75.6963 56.6044 75.6863C56.6746 75.6771 56.7459 75.6813 56.8142 75.7005C56.8824 75.7196 56.9461 75.7521 57.0013 75.7963C59.8386 77.8438 62.1257 80.5605 63.6589 83.7055C64.0573 84.5221 64.4156 85.4113 64.3499 86.3805C64.2827 87.3771 63.6231 88.4996 62.4933 88.713C62.4618 88.7221 62.4292 88.7288 62.3963 88.7305ZM40.9388 110.09H40.8836C40.7458 110.075 40.6194 110.007 40.5321 109.9C40.4448 109.792 40.4038 109.655 40.4179 109.517C41.0463 103.489 42.2087 99.9313 42.264 99.7821C42.2844 99.7155 42.318 99.6538 42.3627 99.6005C42.4073 99.5471 42.4622 99.503 42.5241 99.4713C42.586 99.4388 42.6536 99.4196 42.723 99.4146C42.7924 99.4088 42.8622 99.418 42.9282 99.4396C42.9943 99.4613 43.0553 99.4963 43.1077 99.5421C43.16 99.5888 43.2027 99.6446 43.2331 99.7071C43.2635 99.7696 43.2811 99.838 43.2849 99.9071C43.2887 99.9763 43.2785 100.046 43.2549 100.111C43.243 100.147 42.073 103.722 41.4566 109.624C41.4427 109.752 41.3822 109.87 41.2866 109.956C41.1911 110.042 41.0673 110.09 40.9388 110.09ZM25.8238 101.79C25.8238 101.79 19.3439 100.746 19.0484 102.02C18.935 102.511 25.1328 105.996 25.1328 105.996C25.1328 105.996 25.3627 104.251 25.8238 101.79Z" fill="#660B2C"/>
<path d="M25.1323 106.519C25.0424 106.519 24.954 106.496 24.8756 106.452C18.3375 102.774 18.4435 102.312 18.539 101.903C18.739 101.043 19.9463 100.745 22.5789 100.906C24.2429 101.009 25.8397 101.264 25.9069 101.275C25.9755 101.286 26.0411 101.311 26.1 101.348C26.1588 101.385 26.2097 101.434 26.2497 101.491C26.2896 101.548 26.318 101.612 26.3329 101.68C26.3478 101.748 26.3491 101.818 26.3367 101.887C25.889 104.31 25.6517 106.048 25.6502 106.065C25.6386 106.15 25.6066 106.23 25.557 106.3C25.5073 106.369 25.4415 106.425 25.3651 106.463C25.2927 106.499 25.2131 106.518 25.1323 106.519ZM19.7597 102.061C20.4925 102.658 22.6206 103.961 24.7264 105.164C24.8249 104.51 24.9875 103.478 25.2159 102.225C22.7952 101.876 20.5089 101.812 19.7567 102.061H19.7597ZM41.8471 104.252C41.8471 104.252 48.5509 107.248 47.836 108.028C46.6959 109.271 40.9367 109.562 40.9367 109.562L41.8471 104.252Z" fill="#660B2C"/>
<path d="M40.9373 110.09C40.8613 110.09 40.7861 110.074 40.7172 110.042C40.6482 110.009 40.5871 109.963 40.5381 109.905C40.4891 109.847 40.4533 109.779 40.4333 109.705C40.4133 109.632 40.4096 109.555 40.4225 109.48L41.3328 104.17C41.3466 104.092 41.3781 104.018 41.4247 103.954C41.4715 103.889 41.5322 103.836 41.6024 103.799C41.6726 103.761 41.7504 103.74 41.8298 103.738C41.9093 103.734 41.9884 103.75 42.0611 103.782C42.0761 103.782 43.5535 104.449 45.031 105.222C47.8321 106.684 48.3037 107.297 48.3963 107.743C48.4207 107.856 48.4176 107.974 48.3872 108.086C48.3569 108.199 48.3001 108.302 48.2217 108.388C46.9994 109.72 41.9611 110.039 40.9642 110.089L40.9373 110.09ZM42.2491 105.016L41.5641 109.007C43.5699 108.858 46.3472 108.462 47.2681 107.837C46.701 107.25 44.4296 106.024 42.2491 105.014V105.016ZM27.7834 130.569C27.7298 130.569 27.6764 130.561 27.6252 130.545C27.4932 130.504 27.3833 130.411 27.3195 130.288C27.2557 130.165 27.2433 130.022 27.285 129.89L39.048 92.4619C39.0896 92.3303 39.1819 92.2194 39.3047 92.1561C39.4276 92.0919 39.5709 92.0786 39.7031 92.1203C39.8353 92.1619 39.9456 92.2544 40.0097 92.3769C40.0738 92.5003 40.0865 92.6436 40.0449 92.7761L28.2804 130.204C28.2471 130.309 28.181 130.402 28.0916 130.468C28.0023 130.533 27.8943 130.569 27.7834 130.569ZM92.7184 134.854C92.6317 134.854 92.5467 134.832 92.4709 134.791C92.3942 134.749 92.3292 134.69 92.2817 134.618L61.9591 88.4953C61.883 88.3794 61.8559 88.2386 61.8838 88.1028C61.9118 87.9669 61.9926 87.8478 62.1084 87.7719C62.2241 87.6953 62.3655 87.6686 62.5012 87.6961C62.6369 87.7244 62.756 87.8053 62.8321 87.9211L93.1542 134.036C93.2059 134.114 93.2351 134.206 93.2392 134.3C93.2434 134.394 93.2217 134.488 93.1776 134.57C93.1326 134.654 93.0667 134.723 92.9859 134.771C92.9051 134.819 92.8126 134.846 92.7184 134.846V134.854ZM225.193 143.456C225.09 143.455 224.989 143.424 224.904 143.365C224.818 143.307 224.753 143.224 224.713 143.129C224.675 143.033 224.666 142.928 224.687 142.827C224.708 142.725 224.758 142.633 224.833 142.56C225.658 141.765 227.928 141.409 229.086 141.711C229.929 141.932 230.578 141.849 230.999 141.459C231.535 140.969 231.663 140.06 231.558 139.424C231.29 137.834 231.275 130.787 231.473 128.177C232.518 114.455 231.654 106.459 227.61 92.5219C227.57 92.3886 227.585 92.2453 227.652 92.1236C227.718 92.0011 227.83 91.9103 227.963 91.8703C228.096 91.8311 228.239 91.8461 228.362 91.9119C228.484 91.9786 228.575 92.0903 228.614 92.2236C232.698 106.301 233.573 114.381 232.515 128.249C232.308 130.963 232.354 137.848 232.587 139.243C232.736 140.181 232.532 141.466 231.703 142.228C231.218 142.675 230.326 143.114 228.82 142.719C227.925 142.484 226.065 142.821 225.557 143.315C225.458 143.407 225.328 143.458 225.193 143.456Z" fill="#660B2C"/>
<path d="M227.318 140.1C227.201 140.1 227.085 140.061 226.994 139.987C226.901 139.914 226.836 139.812 226.809 139.698C226.782 139.583 226.794 139.463 226.844 139.357C226.894 139.25 226.978 139.163 227.084 139.111C228.071 138.615 228.562 137.285 228.128 136.266C228.075 136.138 228.074 135.994 228.126 135.866C228.179 135.737 228.28 135.635 228.408 135.582C228.535 135.528 228.68 135.527 228.808 135.58C228.936 135.632 229.039 135.734 229.092 135.862C229.732 137.387 229.026 139.294 227.548 140.04C227.476 140.077 227.398 140.098 227.318 140.1Z" fill="#660B2C"/>
<path d="M38.7898 187.389C38.7898 187.389 39.6598 193.508 40.7299 192.015C41.8 190.523 39.8658 189.151 42.846 188.814C45.8264 188.477 48.2082 186.901 44.122 185.72C40.0359 184.539 38.3032 184.434 38.7898 187.389Z" fill="#F24182"/>
<path d="M40.3955 192.778C40.3307 192.778 40.2662 192.771 40.203 192.756C39.7553 192.646 39.2672 192.217 38.7196 189.855C38.4509 188.691 38.2882 187.571 38.2718 187.466C38.142 186.677 38.0555 185.553 38.7867 184.904C39.6956 184.097 41.3462 184.377 44.2697 185.222C44.9279 185.411 46.9277 185.989 46.8217 187.249C46.7187 188.476 44.6488 189.14 42.9072 189.338C41.5641 189.487 41.5641 189.696 41.6088 190.383C41.6372 190.899 41.6775 191.606 41.1612 192.331C40.8955 192.691 40.6089 192.778 40.3955 192.778ZM40.3224 185.471C39.9433 185.471 39.6508 185.536 39.4822 185.686C39.2255 185.915 39.1658 186.459 39.3046 187.304V187.316C39.5747 189.217 40.0358 191.032 40.3791 191.605C40.6074 191.223 40.5881 190.859 40.5642 190.436C40.5075 189.411 40.6358 188.544 42.7893 188.3C44.6802 188.086 45.7562 187.436 45.7741 187.162C45.7741 187.162 45.6995 186.725 43.9728 186.226C42.5789 185.822 41.2104 185.471 40.3224 185.471Z" fill="#F24182"/>
<path d="M149.342 140.468H132.372C131.986 140.468 131.616 140.314 131.344 140.041C131.07 139.769 130.917 139.399 130.917 139.013V126.714C130.917 126.329 131.07 125.959 131.344 125.686C131.616 125.413 131.986 125.259 132.372 125.259H149.342C149.728 125.259 150.097 125.413 150.369 125.686C150.642 125.959 150.795 126.329 150.795 126.714V139.013C150.795 139.399 150.642 139.769 150.369 140.041C150.097 140.314 149.728 140.468 149.342 140.468ZM132.372 126.304C132.263 126.304 132.159 126.347 132.082 126.424C132.004 126.501 131.961 126.605 131.961 126.714V139.013C131.961 139.122 132.004 139.226 132.082 139.303C132.159 139.38 132.263 139.424 132.372 139.424H149.342C149.45 139.423 149.554 139.379 149.631 139.303C149.708 139.226 149.75 139.122 149.75 139.013V126.714C149.75 126.605 149.708 126.501 149.631 126.424C149.554 126.348 149.45 126.304 149.342 126.304H132.372ZM106.765 92.4619C106.765 92.4619 102.615 93.8611 102.615 94.7727L106.831 96.3244L106.765 92.4619Z" fill="#660B2C"/>
<path d="M106.823 96.8467C106.762 96.8467 106.701 96.8358 106.642 96.8142L102.427 95.2633C102.327 95.2258 102.24 95.1592 102.179 95.0708C102.118 94.9833 102.085 94.8792 102.085 94.7725C102.085 94.135 102.8 93.5442 104.472 92.7992C105.517 92.3308 106.553 91.9833 106.597 91.9683C106.674 91.9417 106.757 91.9342 106.839 91.9458C106.921 91.9583 106.998 91.9892 107.065 92.0367C107.132 92.0842 107.187 92.1467 107.226 92.22C107.264 92.2925 107.285 92.3733 107.286 92.4558L107.344 96.3167C107.345 96.3858 107.332 96.455 107.307 96.5192C107.281 96.5833 107.242 96.6417 107.194 96.6908C107.145 96.74 107.087 96.7792 107.023 96.8058C106.959 96.8333 106.891 96.8467 106.822 96.8467H106.823ZM103.446 94.5242L106.291 95.5692L106.253 93.1967C105.055 93.6442 103.972 94.1575 103.446 94.5242ZM132.358 91.6533C135.549 92.2758 139.162 93.5008 139.199 94.2292C139.199 94.2292 133.777 96.3975 132.383 96.73L132.358 91.6533Z" fill="#660B2C"/>
<path d="M132.383 97.2532C132.267 97.2523 132.153 97.214 132.061 97.1431C131.999 97.094 131.949 97.0323 131.914 96.9615C131.88 96.8907 131.862 96.8123 131.861 96.734L131.836 91.6598C131.835 91.5823 131.852 91.5056 131.884 91.4356C131.918 91.3656 131.965 91.304 132.024 91.2548C132.084 91.2048 132.154 91.1698 132.229 91.1507C132.304 91.1315 132.383 91.1298 132.458 91.1448C134.048 91.4515 135.613 91.8765 137.14 92.4148C139.369 93.2256 139.698 93.7581 139.722 94.2056C139.727 94.3148 139.698 94.4223 139.639 94.514C139.58 94.6057 139.494 94.6773 139.393 94.7173C139.171 94.8056 133.919 96.9057 132.506 97.2432C132.466 97.2507 132.424 97.254 132.383 97.2532ZM132.883 92.2957L132.91 96.0448C134.331 95.5848 136.991 94.5523 138.283 94.0431C137.404 93.5581 135.378 92.8298 132.883 92.2957Z" fill="#660B2C"/>
</g>
<defs>
<clipPath id="clip0_2179_6224">
<rect width="250" height="200" fill="white"/>
</clipPath>
</defs>
</svg>
