<svg width="360" height="240" viewBox="0 0 360 240" fill="none" xmlns="http://www.w3.org/2000/svg">
<path d="M313.514 174.6C313.507 175.944 313.483 177.284 313.45 178.619C312.994 196.286 299.903 210.487 283.893 210.569L282.427 210.576L267.799 210.65L229.387 210.843L76.9347 211.612C66.1908 211.665 56.7588 205.333 51.6799 195.793C49.3025 191.338 47.8769 186.179 47.7099 180.64C47.6998 180.321 47.6926 180.004 47.6825 179.684C47.6393 178.03 47.6191 176.368 47.6191 174.699C47.6191 174.273 47.6191 173.846 47.622 173.42C47.8423 135.681 58.6251 100.998 76.5329 73.5302C101.091 35.8541 139.046 11.7528 181.509 11.9386C254.936 12.2654 314.036 85.0934 313.514 174.6Z" fill="#EFEFEF"/>
<path d="M66.0796 118.007C79.3967 118.007 90.1924 107.211 90.1924 93.894C90.1924 80.5769 79.3967 69.7812 66.0796 69.7812C52.7625 69.7812 41.9668 80.5769 41.9668 93.894C41.9668 107.211 52.7625 118.007 66.0796 118.007Z" fill="white"/>
<path d="M66.0779 107.494C73.5886 107.494 79.6772 101.405 79.6772 93.8943C79.6772 86.3836 73.5886 80.2949 66.0779 80.2949C58.5672 80.2949 52.4785 86.3836 52.4785 93.8943C52.4785 101.405 58.5672 107.494 66.0779 107.494Z" fill="#EFEFEF"/>
<path d="M42.7997 92.8923C46.555 92.8923 49.5994 89.848 49.5994 86.0927C49.5994 82.3373 46.555 79.293 42.7997 79.293C39.0443 79.293 36 82.3373 36 86.0927C36 89.848 39.0443 92.8923 42.7997 92.8923Z" fill="#EFEFEF"/>
<path d="M102.448 212.617L104.446 122.521H57.2207V212.617H102.448Z" fill="#F7F7F7"/>
<path d="M86.3343 130.745H65.0684V149.848H86.3343V130.745Z" fill="white"/>
<path d="M86.3343 156.516H65.0684V175.619H86.3343V156.516Z" fill="white"/>
<path d="M301.923 212.585L303.92 122.49H256.695V212.585H301.923Z" fill="#F7F7F7"/>
<path d="M257.818 212.585V62.718H190.153V97.7143H186.004V33.0986H145.108V96.3838H140.962V51.4701H89.0775L88.0781 212.585H257.818Z" fill="#F7F7F7"/>
<path d="M114.482 58.8418H98.959V76.836H114.482V58.8418Z" fill="white"/>
<path d="M135.168 58.8418H119.645V76.836H135.168V58.8418Z" fill="white"/>
<path d="M114.482 83.1143H98.959V101.109H114.482V83.1143Z" fill="white"/>
<path d="M135.168 83.1143H119.645V101.109H135.168V83.1143Z" fill="white"/>
<path d="M167.473 19.7676H154.91V33.0991H167.473V19.7676Z" fill="#EFEFEF"/>
<path d="M180.926 41.5498H154.021V44.6127H180.926V41.5498Z" fill="white"/>
<path d="M180.926 49.123H154.021V52.1859H180.926V49.123Z" fill="white"/>
<path d="M180.926 56.6963H154.021V59.7592H180.926V56.6963Z" fill="white"/>
<path d="M180.926 64.2676H154.021V67.3305H180.926V64.2676Z" fill="white"/>
<path d="M282.23 132.812H270.68V146.199H282.23V132.812Z" fill="white"/>
<path d="M282.23 150.872H270.68V164.26H282.23V150.872Z" fill="white"/>
<path d="M261.34 107.088H257.92V180.201H261.34V107.088Z" fill="#EFEFEF"/>
<path d="M291.305 116.027C305.78 116.027 317.515 104.293 317.515 89.8178C317.515 75.3428 305.78 63.6084 291.305 63.6084C276.83 63.6084 265.096 75.3428 265.096 89.8178C265.096 104.293 276.83 116.027 291.305 116.027Z" fill="white"/>
<path d="M291.305 104.601C299.469 104.601 306.088 97.9826 306.088 89.8182C306.088 81.6538 299.469 75.0352 291.305 75.0352C283.14 75.0352 276.521 81.6538 276.521 89.8182C276.521 97.9826 283.14 104.601 291.305 104.601Z" fill="#EFEFEF"/>
<path d="M316.608 88.7293C320.691 88.7293 324 85.42 324 81.3378C324 77.2556 320.691 73.9463 316.608 73.9463C312.526 73.9463 309.217 77.2556 309.217 81.3378C309.217 85.42 312.526 88.7293 316.608 88.7293Z" fill="#EFEFEF"/>
<path d="M188.193 113.154C189.779 114.023 205.278 121.467 207.069 120.259C209.194 118.838 206.592 116.298 206.445 116.195C206.621 116.275 210.594 117.438 212.116 116.098C213.428 114.934 210.585 113.375 209.662 112.911C210.67 113.367 214.204 114.797 215.258 113.081C216.07 111.765 214.26 110.532 212.922 109.839C214.171 110.289 215.91 110.564 216.088 108.738C216.37 105.838 206.453 103.493 206.453 103.493C206.453 103.493 211.292 100.942 209.155 98.4057C207.914 96.9427 203.336 99.1919 199.901 99.958C199.009 100.154 194.58 99.503 193.845 99.4223" fill="#FFB4D0"/>
<path d="M212.781 110.139C212.742 110.139 212.703 110.132 212.664 110.116C212.602 110.092 206.478 107.613 205.045 107.219C204.881 107.174 204.783 107.003 204.829 106.839C204.874 106.675 205.045 106.577 205.209 106.623C206.677 107.026 212.644 109.441 212.896 109.543C213.055 109.606 213.131 109.788 213.066 109.946C213.02 110.066 212.903 110.139 212.781 110.139ZM209.385 113.093C209.344 113.093 209.301 113.084 209.26 113.065C209.051 112.973 204.142 110.792 203.172 110.318C203.018 110.243 202.954 110.057 203.029 109.904C203.104 109.75 203.29 109.687 203.443 109.762C204.403 110.231 209.46 112.478 209.511 112.499C209.666 112.568 209.737 112.751 209.668 112.908C209.617 113.024 209.504 113.093 209.385 113.093ZM206.438 116.501C206.39 116.501 206.343 116.491 206.298 116.468C206.253 116.445 201.873 114.224 200.632 113.765C200.472 113.706 200.39 113.528 200.449 113.368C200.508 113.208 200.686 113.126 200.846 113.185C202.121 113.657 206.396 115.824 206.577 115.916C206.73 115.994 206.791 116.18 206.713 116.333C206.66 116.439 206.552 116.501 206.438 116.501Z" fill="#FE85B1"/>
<path d="M288.996 152.782L230.691 167.992V228.064L288.996 212.855V152.782Z" fill="#FC4D8D"/>
<path d="M172.387 152.782L230.692 167.992V228.064L172.387 212.855V152.782Z" fill="#FF5191"/>
<path d="M172.387 152.782L230.692 167.991L288.996 152.782L230.692 137.571L172.387 152.782Z" fill="#452F37"/>
<path d="M288.995 152.781L270.562 157.592L230.692 147.19L190.824 157.592L172.387 152.781L230.692 137.573L288.995 152.781Z" fill="#F7317A"/>
<path d="M239.095 213.059C238.544 213.059 238.043 212.691 237.898 212.133C237.725 211.472 238.121 210.796 238.784 210.623L271.371 202.123C272.032 201.95 272.708 202.346 272.881 203.008C273.054 203.669 272.658 204.346 271.996 204.519L239.408 213.019C239.303 213.046 239.198 213.059 239.095 213.059ZM239.594 218.747C239.044 218.747 238.543 218.379 238.398 217.821C238.225 217.16 238.621 216.484 239.283 216.311L256.161 211.907C256.822 211.735 257.499 212.131 257.672 212.793C257.845 213.454 257.449 214.131 256.786 214.303L239.908 218.707C239.803 218.734 239.698 218.747 239.594 218.747Z" fill="white"/>
<path d="M256.473 183.302L238.295 187.851V205.819L256.473 201.27V183.302Z" fill="white"/>
<path opacity="0.1" d="M230.691 167.991L240.112 195.345L276.839 184.335L230.691 167.991Z" fill="black"/>
<path opacity="0.1" d="M230.692 167.991L221.27 195.345L184.543 184.335L230.692 167.991Z" fill="black"/>
<path d="M288.996 152.782L230.691 167.992L245.064 195.776L303.368 180.567L288.996 152.782Z" fill="#FF5191"/>
<path d="M172.386 152.782L230.692 167.992L216.318 195.776L158.014 180.567L172.386 152.782Z" fill="#FC4D8D"/>
<path d="M230.692 158.621C246.193 158.621 258.76 146.055 258.76 130.553C258.76 115.051 246.193 102.484 230.692 102.484C215.19 102.484 202.623 115.051 202.623 130.553C202.623 146.055 215.19 158.621 230.692 158.621Z" fill="#F24182"/>
<path d="M220.537 116.844L216.979 120.402L240.841 144.264L244.4 140.705L220.537 116.844Z" fill="white"/>
<path d="M244.402 120.4L240.844 116.841L216.981 140.703L220.54 144.261L244.402 120.4Z" fill="white"/>
<path d="M136.852 191.797L136.87 192.449L137.039 198.333L137.207 204.164L140.611 207.355L150.52 205.343L150.213 198.925L149.927 192.932L149.859 191.521L136.852 191.797Z" fill="#FFB4D0"/>
<path d="M136.869 192.449L137.039 198.333C140.7 199.26 146.222 199.618 150.212 198.923L149.927 192.932C145.895 193.532 140.878 193.195 136.869 192.449Z" fill="#FE85B1"/>
<path d="M141.426 218.624C144.57 218.557 145.508 217.906 145.508 217.906C145.508 217.906 154.955 220.227 161.104 219.625C162.185 219.518 163.087 219.389 163.838 219.248C167.371 218.58 167.624 217.639 167.624 217.639C167.624 217.639 167.964 216.497 167.72 215.458C167.618 214.998 168.14 211.058 163.475 209.964C162.261 209.679 160.945 209.476 159.939 209.218C159.448 209.096 159.033 208.965 158.725 208.822C157.044 208.043 151.79 202.974 149.481 202.835C149.087 202.81 148.712 202.912 148.354 203.094L148.347 203.101C147.831 203.365 147.349 203.799 146.878 204.272L146.874 204.276C145.782 205.382 144.758 206.694 143.533 206.593C141.415 206.413 138.569 202.717 137.204 204.164C137.204 204.164 136.372 210.362 135.754 213.561C135.547 214.634 135.382 215.73 135.313 216.742C135.207 217.559 138.247 218.692 141.426 218.624Z" fill="#F24182"/>
<path d="M163.489 219C163.601 219.091 163.718 219.173 163.837 219.248H163.839C167.371 218.579 167.624 217.639 167.624 217.639C167.624 217.639 167.964 216.497 167.721 215.457C167.619 214.998 168.14 211.058 163.476 209.964C163.169 210.207 162.897 210.494 162.681 210.819C161.959 211.898 162.007 216.546 162.535 217.731C162.754 218.221 163.077 218.661 163.489 219Z" fill="#EF3076"/>
<path d="M146.877 204.277C146.877 204.277 156.188 210.52 157.87 210.442C159.199 210.381 159.72 209.656 159.88 209.353L158.727 208.822C157.046 208.043 151.793 202.974 149.485 202.834C149.089 202.811 148.716 202.912 148.357 203.095L148.35 203.099C147.835 203.361 147.351 203.78 146.883 204.273L146.877 204.277Z" fill="#FC4D8D"/>
<path d="M135.313 216.743C135.205 217.56 138.247 218.693 141.426 218.624C144.568 218.555 145.51 217.907 145.51 217.907C145.51 217.907 154.955 220.225 161.102 219.625C167.25 219.021 167.624 217.638 167.624 217.638C167.624 217.638 167.962 216.497 167.722 215.457C164.496 216.17 156.157 216.915 148.541 215.803C141.262 214.739 135.754 213.562 135.754 213.562C135.548 214.635 135.384 215.731 135.313 216.743ZM153.202 207.462C153.159 207.462 153.115 207.454 153.073 207.434C152.917 207.362 152.85 207.179 152.92 207.023C153.364 206.057 154.455 205.55 154.501 205.529C154.657 205.457 154.84 205.526 154.91 205.681C154.982 205.837 154.913 206.02 154.759 206.092C154.75 206.096 153.829 206.528 153.483 207.282C153.431 207.396 153.319 207.462 153.202 207.462ZM155.054 208.426C155.02 208.426 154.985 208.42 154.951 208.409C154.789 208.351 154.706 208.174 154.762 208.014C155.053 207.196 155.974 206.738 156.015 206.719C156.169 206.645 156.353 206.708 156.428 206.862C156.503 207.016 156.44 207.2 156.285 207.275C156.278 207.28 155.55 207.644 155.345 208.221C155.302 208.347 155.182 208.426 155.054 208.426Z" fill="black"/>
<path d="M157.849 210.752C156.033 210.752 147.661 205.175 146.706 204.534C146.563 204.439 146.526 204.246 146.621 204.105C146.716 203.963 146.909 203.925 147.05 204.02C150.758 206.506 156.692 210.182 157.857 210.133C159.291 210.068 159.634 209.158 159.649 209.119C159.706 208.959 159.882 208.874 160.042 208.931C160.201 208.987 160.288 209.16 160.233 209.319C160.214 209.374 159.758 210.666 157.885 210.751C157.873 210.752 157.861 210.752 157.849 210.752Z" fill="black"/>
<path d="M156.788 209.833C156.751 209.833 156.713 209.826 156.677 209.813C156.517 209.752 156.438 209.572 156.499 209.413C156.817 208.582 157.616 208.03 157.649 208.007C157.79 207.911 157.982 207.948 158.078 208.088C158.175 208.229 158.139 208.42 157.998 208.517C157.991 208.521 157.324 208.985 157.076 209.633C157.03 209.758 156.912 209.833 156.788 209.833ZM150.505 208.055C150.125 208.055 149.67 207.856 149.326 207.61C148.563 207.064 148.227 206.288 148.425 205.535C148.848 203.928 151.263 204.008 151.365 204.013C151.535 204.02 151.667 204.162 151.662 204.332C151.619 205.526 151.466 207.582 150.923 207.944C150.806 208.022 150.662 208.055 150.505 208.055ZM151.03 204.636C150.451 204.668 149.248 204.838 149.024 205.692C148.849 206.354 149.363 206.852 149.592 207.035C150.045 207.397 150.491 207.473 150.583 207.425C150.779 207.235 150.963 205.889 151.03 204.636Z" fill="black"/>
<path d="M153.471 204.908C152.608 204.908 151.557 204.685 151.285 204.623C151.125 204.587 151.02 204.431 151.047 204.27C151.08 204.076 151.393 202.351 152.231 201.819C152.484 201.658 152.77 201.615 153.056 201.697C153.994 201.96 154.735 203.037 154.813 203.838C154.855 204.266 154.705 204.6 154.4 204.754C154.178 204.866 153.842 204.908 153.471 204.908ZM151.717 204.081C152.591 204.253 153.763 204.384 154.122 204.201C154.214 204.153 154.207 203.972 154.199 203.897C154.142 203.308 153.557 202.479 152.891 202.292C152.771 202.258 152.672 202.274 152.564 202.342C152.169 202.59 151.862 203.445 151.717 204.081Z" fill="black"/>
<path d="M97.111 185.481L97.0116 186.125L96.1275 191.946L95.252 197.713L98.0312 201.46L108.14 201.251L108.984 194.88L109.773 188.933L109.959 187.533L97.111 185.481Z" fill="#FFB4D0"/>
<path d="M97.0111 186.125L96.127 191.945C99.5628 193.512 104.933 194.85 108.983 194.88L109.772 188.933C105.699 188.805 100.823 187.577 97.0111 186.125Z" fill="#FE85B1"/>
<path d="M96.8206 212.693C99.9266 213.187 100.966 212.716 100.966 212.716C100.966 212.716 109.847 216.687 116.003 217.193C117.086 217.281 117.996 217.315 118.76 217.31C122.356 217.284 122.774 216.404 122.774 216.404C122.774 216.404 123.312 215.341 123.259 214.274C123.24 213.805 124.457 210.02 120.064 208.111C118.92 207.613 117.662 207.179 116.717 206.746C116.256 206.538 115.872 206.334 115.594 206.139C114.08 205.072 109.815 199.147 107.569 198.597C107.184 198.502 106.798 198.536 106.414 198.65L106.405 198.656C105.851 198.823 105.299 199.164 104.751 199.546L104.745 199.549C103.473 200.441 102.232 201.55 101.044 201.232C98.9921 200.676 96.8522 196.532 95.251 197.711C95.251 197.711 93.3257 203.66 92.1449 206.7C91.7489 207.718 91.3932 208.766 91.1426 209.75C90.8921 210.534 93.6799 212.193 96.8206 212.693Z" fill="#F24182"/>
<path d="M118.461 217.005C118.555 217.114 118.656 217.215 118.761 217.31C118.761 217.31 118.761 217.31 118.762 217.31C122.356 217.284 122.774 216.404 122.774 216.404C122.774 216.404 123.313 215.342 123.259 214.275C123.241 213.805 124.457 210.021 120.064 208.111C119.718 208.296 119.399 208.529 119.128 208.811C118.225 209.743 117.442 214.326 117.75 215.586C117.878 216.106 118.116 216.599 118.461 217.005Z" fill="#EF3076"/>
<path d="M104.744 199.552C104.744 199.552 112.789 207.356 114.46 207.581C115.779 207.758 116.421 207.139 116.633 206.868L115.593 206.14C114.08 205.073 109.816 199.148 107.569 198.598C107.183 198.505 106.799 198.538 106.413 198.653L106.404 198.656C105.85 198.822 105.3 199.147 104.75 199.549L104.744 199.552Z" fill="#FC4D8D"/>
<path d="M91.1428 209.752C90.8908 210.536 93.6815 212.196 96.8207 212.694C99.9254 213.187 100.966 212.717 100.966 212.717C100.966 212.717 109.846 216.686 116.002 217.193C122.159 217.697 122.774 216.402 122.774 216.402C122.774 216.402 123.311 215.341 123.261 214.274C119.96 214.399 111.622 213.643 104.326 211.188C97.3535 208.841 92.145 206.698 92.145 206.698C91.749 207.719 91.3919 208.769 91.1428 209.752ZM110.456 203.821C110.396 203.821 110.334 203.802 110.279 203.765C110.139 203.667 110.105 203.474 110.203 203.334C110.812 202.463 111.975 202.158 112.026 202.146C112.191 202.104 112.36 202.204 112.402 202.369C112.443 202.535 112.344 202.704 112.178 202.745C112.168 202.748 111.186 203.007 110.71 203.688C110.65 203.775 110.554 203.821 110.456 203.821ZM112.106 205.1C112.054 205.1 112.001 205.087 111.952 205.059C111.804 204.974 111.754 204.786 111.837 204.637C112.269 203.884 113.258 203.599 113.3 203.588C113.464 203.542 113.636 203.638 113.682 203.802C113.728 203.966 113.633 204.136 113.469 204.184C113.461 204.187 112.678 204.416 112.374 204.947C112.318 205.044 112.213 205.1 112.106 205.1Z" fill="black"/>
<path d="M114.921 207.921C114.765 207.921 114.598 207.911 114.421 207.886C112.699 207.654 105.362 200.578 104.531 199.772C104.409 199.652 104.406 199.456 104.524 199.334C104.644 199.212 104.839 199.209 104.962 199.327C108.166 202.436 113.353 207.116 114.503 207.271C115.927 207.463 116.426 206.629 116.447 206.595C116.532 206.448 116.719 206.396 116.868 206.479C117.016 206.563 117.069 206.749 116.987 206.897C116.963 206.943 116.404 207.921 114.921 207.921Z" fill="black"/>
<path d="M113.559 206.794C113.504 206.794 113.449 206.779 113.399 206.749C113.253 206.66 113.206 206.47 113.295 206.324C113.757 205.562 114.642 205.164 114.679 205.146C114.835 205.077 115.017 205.146 115.087 205.303C115.156 205.459 115.087 205.642 114.931 205.712C114.924 205.715 114.184 206.052 113.825 206.645C113.766 206.74 113.664 206.794 113.559 206.794ZM107.809 203.932C107.396 203.932 106.9 203.618 106.56 203.267C105.908 202.593 105.715 201.771 106.045 201.065C106.749 199.559 109.111 200.07 109.21 200.092C109.376 200.129 109.481 200.294 109.445 200.461C109.19 201.627 108.671 203.624 108.072 203.881C107.99 203.917 107.901 203.932 107.809 203.932ZM108.198 200.61C107.603 200.61 106.879 200.741 106.605 201.327C106.316 201.948 106.732 202.53 106.925 202.75C107.305 203.188 107.731 203.342 107.829 203.312C108.055 203.158 108.478 201.867 108.766 200.646C108.614 200.628 108.414 200.61 108.198 200.61Z" fill="black"/>
<path d="M111.695 201.409C110.793 201.409 109.34 200.814 109.021 200.679C108.869 200.614 108.794 200.444 108.851 200.289C108.918 200.103 109.533 198.462 110.453 198.089C110.731 197.975 111.021 197.985 111.287 198.114C112.163 198.542 112.7 199.733 112.634 200.535C112.599 200.963 112.39 201.265 112.063 201.363C111.958 201.395 111.833 201.409 111.695 201.409ZM109.543 200.224C110.371 200.548 111.502 200.886 111.886 200.771C111.986 200.741 112.01 200.561 112.017 200.486C112.065 199.897 111.639 198.977 111.016 198.672C110.906 198.618 110.805 198.616 110.687 198.663C110.22 198.85 109.769 199.704 109.543 200.224Z" fill="black"/>
<path d="M116.158 45.4042L93.4058 46.9248L102.013 53.1096L104.438 54.8535L106.434 56.2892L105.676 57.048L93.9588 68.8229C93.9588 68.8229 85.9553 63.6058 80.623 56.701C77.5514 52.7237 75.8825 48.2396 76.1129 43.7597C76.7551 31.2936 114.002 33.4349 114.002 33.4349L116.158 45.4042Z" fill="#FFB4D0"/>
<path d="M105.678 57.0475L93.9608 68.8224C93.9608 68.8224 85.9573 63.6053 80.625 56.7005C82.2666 58.0757 84.0954 59.196 86.1344 59.8267C89.53 60.8765 93.5807 60.3249 96.0517 57.7704C96.7847 57.0115 97.3535 56.1129 98.0144 55.2878C98.6725 54.4627 99.4544 53.6909 100.441 53.3179C100.958 53.1221 101.501 53.0544 102.015 53.1091C102.895 53.2056 103.698 53.6592 104.193 54.4512C104.277 54.5837 104.361 54.7176 104.438 54.853C104.875 55.5686 105.281 56.3045 105.678 57.0475Z" fill="#FE85B1"/>
<path d="M195.878 99.7249L188.816 113.475C188.816 113.475 175.34 109.739 163.805 104.583C160.455 103.09 157.577 101.653 155.712 100.429C152.956 98.6204 148.171 93.9534 144.167 89.8393C140.373 85.9412 137.281 82.5399 137.281 82.5399L151.874 72.3174L157.016 77.7131L160.226 81.0827L164.018 85.0628L195.878 99.7249Z" fill="#FFB4D0"/>
<path d="M160.225 81.083C160.296 81.6114 153.118 90.2644 152.555 90.7871C151.991 91.3098 151.545 92.0198 151.545 92.7873C151.539 94.0761 152.701 95.0265 153.753 95.7695C157.597 98.4954 159.199 100.985 163.043 103.713C163.356 103.934 163.696 104.247 163.805 104.582C160.456 103.089 157.577 101.652 155.712 100.428C152.956 98.6193 148.171 93.9522 144.168 89.8382C144.463 88.4457 145.234 87.1914 146.077 86.038C148.007 83.3999 150.397 81.1045 153.112 79.2815C154.156 78.5788 155.626 77.7508 157.019 77.7119L160.225 81.083Z" fill="#FE85B1"/>
<path d="M159.743 77.183L152.415 86.0174L147.49 91.9516L141.934 86.7662L135.814 81.0537L137.208 64.6377C137.208 64.6377 145.092 66.6638 148.819 69.1564C150.482 70.2724 159.743 77.183 159.743 77.183Z" fill="#FE2474"/>
<path d="M152.41 86.1827L147.485 92.117L141.93 86.9315C142.091 85.9682 142.324 85.0106 142.575 84.0818C143.339 81.2551 144.261 78.3304 143.692 75.4562C143.564 74.8096 143.361 74.1746 143.306 73.5165C143.249 72.8584 143.358 72.1514 143.784 71.6474L143.944 70.9317C145.075 70.7546 146.191 71.4904 146.807 72.4538C147.426 73.4171 147.648 74.5735 147.857 75.6981C148.348 78.3319 148.837 80.9613 149.326 83.5951C149.485 84.4432 149.698 85.3821 150.417 85.866C150.983 86.2533 151.716 86.2403 152.41 86.1827Z" fill="#D60753"/>
<path d="M154.141 188.856C154.057 193.039 154.006 195.769 154.006 195.769C146.009 197.642 138.662 197.576 130.99 195.379L131.457 188.447L133.933 151.797L134.233 147.35L129.79 126.999L123.08 96.2578L144.932 97.1737C144.932 97.1737 155.932 133.335 156.357 146.715C156.422 148.723 154.391 175.642 154.141 188.856Z" fill="#452F37"/>
<path d="M137.149 147.532C136.924 149.016 135.948 150.306 134.761 151.224C134.495 151.43 134.219 151.62 133.933 151.798L134.233 147.352L129.791 127C129.838 125.393 129.852 123.785 129.806 122.178C129.704 118.586 129.295 114.99 128.348 111.524L129.932 111.592C131.978 111.245 134.041 112.613 134.995 114.452C135.949 116.295 135.971 118.49 135.605 120.533C135.242 122.574 134.528 124.536 134.069 126.559C132.931 131.584 133.452 136.969 135.533 141.684C136.361 143.563 137.457 145.501 137.149 147.532Z" fill="black"/>
<path d="M130.61 145.546C128.583 155.891 121.346 176.297 117.616 186.475C116.295 190.084 115.413 192.409 115.364 192.543L115.361 192.549C109.494 193.904 98.9694 192.494 92.2129 187.331L94.7055 181.242L108.234 141.025L109.44 93.9365L133.021 94.9157C133.022 94.9143 133.12 132.732 130.61 145.546Z" fill="#452F37"/>
<path d="M148.585 106.971C137.498 111.238 122.017 110.241 107.408 107.438C107.408 107.438 107.168 104.314 106.901 99.7653C106.507 93.0578 106.056 83.2499 106.233 75.8023C106.361 70.4728 106.812 66.3501 107.836 65.4357C111.924 61.7882 137.259 60.9544 143.804 68.3978C147.457 72.5551 148.585 106.971 148.585 106.971Z" fill="#FE2474"/>
<path d="M112.693 77.2521C112.025 78.3954 111.043 81.3042 110.249 82.3612C109.378 83.5247 109.388 92.0596 109.577 95.0418C109.666 96.4516 109.796 98.0644 108.806 99.0681C108.308 99.5749 107.611 99.7909 106.901 99.765C106.507 93.0575 106.056 83.2497 106.233 75.802C107.519 74.3303 109.552 73.6233 111.453 73.0127C112.851 72.5634 114.248 72.117 115.645 71.6692L115.867 70.4092C116.64 73.4274 114.264 74.5578 112.693 77.2521Z" fill="#D60753"/>
<path d="M118.361 62.8641L104.074 51.9316L90.1914 68.3563C90.1914 68.3563 103.749 80.4422 106.2 80.9851C117.985 77.6025 118.865 71.6395 118.361 62.8641Z" fill="#FE2474"/>
<path d="M140.422 49.2516L147.39 47.9988C149.671 47.9772 151.565 46.229 151.769 43.9567L152.012 41.2495C152.132 40.6505 151.811 40.0543 151.246 39.8196L147.543 38.3018C147.327 38.2111 147.089 38.1852 146.856 38.2226L145.184 38.489C144.733 38.5596 144.353 38.8677 144.192 39.2969L140.422 49.2516Z" fill="black"/>
<path d="M124.297 62.7185C124.771 64.0707 127.15 67.9443 130.917 68.5606C135.054 69.2432 135.697 67.4201 135.818 66.8773C135.826 66.8398 135.83 66.8197 135.83 66.8197L136.07 64.6813L136.426 61.5017L136.679 59.2237L137.052 55.8929L126.417 52.9424C126.599 56.5496 125.541 59.6355 124.297 62.7185Z" fill="#FFB4D0"/>
<path d="M136.072 64.6844C134.198 63.41 129.727 60.0461 129.523 56.8551C129.258 52.813 136.638 59.1879 136.638 59.1879L136.682 59.2253L136.427 61.5034L136.072 64.6844Z" fill="#FE85B1"/>
<path d="M126.114 49.2993C125.984 55.6828 131.565 61.9569 137.498 62.0779C143.431 62.1988 147.469 56.122 147.6 49.7371C147.731 43.3521 142.838 38.724 136.905 38.603C130.971 38.482 126.245 42.9158 126.114 49.2993Z" fill="#FFB4D0"/>
<path d="M141.641 55.9148C141.421 55.9148 141.205 55.8917 141.003 55.8687C140.833 55.85 140.711 55.6973 140.729 55.5274C140.748 55.3575 140.904 55.2365 141.071 55.2538C141.428 55.2927 141.796 55.333 142.117 55.2322C142.367 55.153 142.621 54.9399 142.626 54.6836C142.632 54.3984 142.345 54.132 142.067 53.8757L142.009 53.8224C141.128 53.0002 140.489 51.9533 140.161 50.7956C140.114 50.6314 140.209 50.46 140.374 50.414C140.539 50.3679 140.709 50.4629 140.755 50.6271C141.053 51.6768 141.634 52.6258 142.431 53.3703L142.488 53.4221C142.829 53.7389 143.255 54.1335 143.244 54.6965C143.233 55.1876 142.848 55.6512 142.303 55.824C142.081 55.8917 141.858 55.9148 141.641 55.9148ZM135.252 57.7997C135.172 57.7997 135.092 57.7695 135.031 57.7076C134.91 57.5866 134.912 57.3908 135.034 57.2698C135.537 56.773 136.201 56.4576 136.903 56.3828C137.605 56.3064 138.322 56.4749 138.918 56.8536C139.062 56.9458 139.105 57.1359 139.013 57.2813C138.922 57.4253 138.729 57.4685 138.585 57.3764C138.107 57.0725 137.533 56.9386 136.968 56.9991C136.404 57.0596 135.872 57.313 135.469 57.7119C135.409 57.7695 135.329 57.7997 135.252 57.7997Z" fill="#FE85B1"/>
<path d="M143.869 51.605C143.785 52.1162 143.998 52.577 144.344 52.6317C144.691 52.6908 145.039 52.3207 145.124 51.811C145.208 51.2983 144.996 50.8375 144.649 50.7814C144.304 50.7238 143.954 51.0924 143.869 51.605ZM143.69 50.3249C143.596 50.3249 143.504 50.2831 143.444 50.2025C143.34 50.0671 143.366 49.8727 143.503 49.769C144.102 49.314 145.502 48.725 146.515 49.759C146.635 49.8814 146.633 50.0772 146.511 50.1967C146.389 50.3162 146.193 50.3148 146.073 50.1924C145.183 49.2852 143.929 50.2212 143.877 50.2615C143.821 50.3033 143.755 50.3249 143.69 50.3249ZM136.651 51.8671C136.568 52.3783 136.781 52.8391 137.127 52.8938C137.474 52.9529 137.822 52.5828 137.907 52.073C137.991 51.5604 137.779 51.0996 137.432 51.0434C137.085 50.9858 136.735 51.3545 136.651 51.8671ZM136.471 50.5855C136.378 50.5855 136.286 50.5437 136.225 50.4631C136.121 50.3263 136.149 50.1334 136.284 50.0297C136.883 49.5746 138.283 48.9857 139.298 50.0196C139.418 50.142 139.416 50.3378 139.294 50.4574C139.171 50.5769 138.976 50.5754 138.856 50.453C137.972 49.5516 136.712 50.4818 136.659 50.5222C136.602 50.5654 136.536 50.5855 136.471 50.5855Z" fill="black"/>
<path d="M127.818 46.1266C127.818 46.1266 130.027 47.5407 129.908 49.4588C129.908 49.4588 132.301 50.9967 132.926 49.1103C133.345 47.846 133.917 47.2138 134.197 45.8357C134.326 45.2093 134.897 44.773 135.535 44.8205C138.077 45.0077 148.723 47.7207 147.28 39.8424C146.206 33.9759 132.484 31.8375 126.938 36.3821C121.393 40.9268 120.651 48.6524 121.517 50.8383C122.382 53.0242 126.002 57.9821 126.002 57.9821C126.473 56.7725 126.619 54.9855 126.658 53.0026L127.818 46.1266Z" fill="black"/>
<path d="M126.413 52.8804C128.343 52.8804 129.907 51.3164 129.907 49.387C129.907 47.4576 128.343 45.8936 126.413 45.8936C124.484 45.8936 122.92 47.4576 122.92 49.387C122.92 51.3164 124.484 52.8804 126.413 52.8804Z" fill="#FFB4D0"/>
<path d="M124.825 49.9129C124.824 49.9129 124.821 49.9129 124.818 49.9129C124.647 49.9085 124.511 49.7674 124.516 49.5975C124.546 48.0898 125.787 46.8845 127.308 46.9177C127.479 46.9205 127.615 47.0631 127.61 47.233C127.607 47.4044 127.473 47.5383 127.295 47.5354C126.129 47.5181 125.159 48.4412 125.135 49.609C125.131 49.7775 124.994 49.9129 124.825 49.9129Z" fill="#FE85B1"/>
<path d="M158.806 43.0136C155.624 45.9426 150.329 46.8455 150.329 46.8455C150.329 46.8455 151.38 40.1768 146.9 39.477C145.129 39.2005 139.221 44.6523 133.186 43.6083C133.184 43.6083 133.183 43.6083 133.184 43.6083C133.273 43.5536 146.317 35.6293 154.935 34.3002C156.214 34.1029 157.409 33.9733 158.423 34.1922C162.331 35.0389 161.991 40.0847 158.806 43.0136Z" fill="#BC0649"/>
<path d="M146.384 37.4394C146.384 37.4394 140.801 28.5272 130.443 32.1661C122.465 34.9683 121.336 46.8714 121.332 46.9074C121.357 46.9088 126.921 47.0715 133.183 43.6083C139.462 40.1394 146.384 37.4394 146.384 37.4394Z" fill="#FE2474"/>
<path d="M156.152 34.1579L146.963 39.4427C146.923 39.4657 146.882 39.483 146.838 39.4959C145.03 40.0604 139.15 44.6425 133.184 43.6086C133.185 43.61 147.578 34.8491 156.152 34.1579Z" fill="#D60753"/>
<path d="M114.387 45.2152C115.844 45.3462 129.239 45.8488 130.176 44.3742C131.294 42.6318 128.54 41.5893 128.399 41.5605C128.556 41.5619 131.878 41.14 132.574 39.6539C133.17 38.3666 130.558 38.129 129.723 38.0843C130.618 38.0973 133.701 38.0152 133.927 36.401C134.104 35.1626 132.362 34.8328 131.145 34.7522C132.217 34.6816 133.596 34.323 133.137 32.9118C132.408 30.6683 124.294 32.1386 124.294 32.1386C124.294 32.1386 127.059 28.6797 124.654 27.4902C123.26 26.8062 120.591 29.9555 118.29 31.6346C117.693 32.068 114.07 33.4317 113.498 33.6102" fill="#FFB4D0"/>
<path d="M124.423 35.4165C124.272 35.4165 124.139 35.3056 124.118 35.1515C124.093 34.9816 124.211 34.8261 124.38 34.8016C125.602 34.6259 130.812 34.4862 131.032 34.4805C131.201 34.4661 131.345 34.6115 131.349 34.7814C131.354 34.9528 131.22 35.0939 131.048 35.0982C130.995 35.0997 125.653 35.2422 124.466 35.4136C124.452 35.4165 124.437 35.4165 124.423 35.4165ZM129.476 38.3886H129.474C129.29 38.3872 124.941 38.3584 124.067 38.3195C123.896 38.3123 123.765 38.1683 123.772 37.997C123.779 37.827 123.922 37.6989 124.095 37.7018C124.959 37.7392 129.434 37.7694 129.479 37.7694C129.65 37.7709 129.787 37.9106 129.785 38.0805C129.785 38.2504 129.647 38.3886 129.476 38.3886ZM128.393 41.8706C128.387 41.8706 128.381 41.8706 128.374 41.8706C128.334 41.8677 124.37 41.6373 123.304 41.6978C123.131 41.7078 122.987 41.5768 122.977 41.4069C122.967 41.2355 123.098 41.0901 123.268 41.08C124.368 41.0166 128.245 41.2427 128.409 41.2528C128.579 41.2629 128.71 41.4098 128.7 41.5797C128.692 41.7438 128.556 41.8706 128.393 41.8706Z" fill="#FE85B1"/>
<path d="M154.141 188.855C154.058 193.038 154.006 195.769 154.006 195.769C146.009 197.642 138.663 197.576 130.99 195.378L131.347 188.416C131.383 188.426 131.421 188.436 131.457 188.448C139.033 190.6 146.241 190.657 154.141 188.855Z" fill="black"/>
<path d="M117.616 186.475C116.295 190.084 115.413 192.409 115.364 192.543L115.361 192.549C109.494 193.904 98.9694 192.494 92.2129 187.33L94.7055 181.242C101.867 185.803 110.859 187.166 117.616 186.475Z" fill="black"/>
<path d="M113.032 25.7149L48.373 29.0125C48.373 29.0125 65.5479 16.9093 71.3439 18.5192C77.1356 20.1335 76.0887 23.6614 76.0887 23.6614C76.0887 23.6614 96.5814 14.0552 99.8199 15.8941C103.056 17.733 102.655 22.4792 102.655 22.4792C102.655 22.4792 111.814 20.0254 113.032 25.7149Z" fill="#DDDDDD"/>
<path d="M296.287 34.29L221.076 32.5289C221.076 32.5289 242.066 20.6359 248.642 23.0019C255.214 25.3721 253.696 29.3695 253.696 29.3695C253.696 29.3695 278.272 20.0067 281.866 22.4172C285.456 24.8278 284.582 30.2926 284.582 30.2926C284.582 30.2926 295.409 28.242 296.287 34.29Z" fill="#DDDDDD"/>
</svg>
