<svg xmlns="http://www.w3.org/2000/svg" version="1.1" xmlns:xlink="http://www.w3.org/1999/xlink" width="512" height="512" x="0" y="0" viewBox="0 0 512 512" style="enable-background:new 0 0 512 512" xml:space="preserve" class=""><g><path fill="#ffb739" d="M15.294 250.337 0 256.821a14.955 14.955 0 0 0 4.399 10.621l241.047 240.204c2.813 2.804 7.645 4.341 10.482 4.354 2.882.013 7.811-1.504 10.673-4.357l241.006-240.355a14.962 14.962 0 0 0 4.395-10.6l-13.298-6.35H338.74l-89.73 28.965-75.889-28.965-157.827-.001z" opacity="1" data-original="#ffb739" class=""></path><path fill="#ff9441" d="M511.996 256.689c0 3.865-1.488 7.701-4.395 10.597L266.597 507.641c-2.836 2.836-7.721 4.355-10.597 4.355V277.044l82.739-26.707h159.964z" opacity="1" data-original="#ff9441" class=""></path><path fill="#ff9441" d="M173.119 250.337 256 511.996l82.738-261.659z" opacity="1" data-original="#ff9441" class=""></path><path fill="#ff7149" d="M338.738 250.337 256 511.996V250.337z" opacity="1" data-original="#ff7149" class=""></path><path fill="#ffd17e" d="M509.487 248.362 429.26 128.159a14.968 14.968 0 0 0-4.187-4.164l-7.272 3.492-147.922.922L256 121.494l-11.216 7.071-147.589.92-10.299-5.475a14.955 14.955 0 0 0-4.168 4.157L2.507 248.521a14.926 14.926 0 0 0-2.507 8.3l512-.135a14.94 14.94 0 0 0-2.513-8.324z" opacity="1" data-original="#ffd17e"></path><path fill="#ffb739" d="M511.996 256.689c-18.597 0-137.372.04-255.996.07V121.494l13.883 6.911 147.919-.919 7.271-3.496a15.112 15.112 0 0 1 4.185 4.165l80.232 120.203a14.886 14.886 0 0 1 2.506 8.331zM95.193 121.494c-2.996 0-5.87.901-8.294 2.514l88.856 132.767h.01l80.23-135.281z" opacity="1" data-original="#ffb739" class=""></path><path fill="#ff9441" d="m336.264 256.733 88.806-132.74a14.966 14.966 0 0 0-8.271-2.498H255.995L336.2 256.734h.064z" opacity="1" data-original="#ff9441" class=""></path><path fill="#ffd17e" d="M166.424 361.319c-25.075 0-45.476-20.4-45.476-45.475 0-8.284-6.716-15-15-15s-15 6.716-15 15c0 24.949-20.277 45.475-45.475 45.475-8.284 0-15 6.716-15 15s6.716 15 15 15c25.075 0 45.475 20.4 45.475 45.475 0 8.284 6.716 15 15 15s15-6.716 15-15c0-24.947 20.275-45.475 45.476-45.475 8.284 0 15-6.716 15-15s-6.716-15-15-15z" opacity="1" data-original="#ffd17e"></path><path fill="#ffb739" d="M396.329 60.475c-25.075 0-45.475-20.4-45.475-45.475 0-8.284-6.716-15-15-15s-15 6.716-15 15c0 25.075-20.399 45.475-45.475 45.475-8.284 0-15 6.716-15 15s6.716 15 15 15c25.075 0 45.475 20.4 45.475 45.475 0 8.284 6.716 15 15 15s15-6.716 15-15c0-25.075 20.399-45.475 45.475-45.475 8.284 0 15-6.716 15-15s-6.716-15-15-15z" opacity="1" data-original="#ffb739" class=""></path></g></svg>